<svg width="149" height="149" xmlns="http://www.w3.org/2000/svg"><g fill="none"><path d="M74.402 0C44.312-.004 17.183 18.119 5.667 45.918-5.85 73.716.514 105.715 21.79 126.992c21.276 21.276 53.275 27.64 81.074 16.123 27.798-11.516 45.921-38.645 45.917-68.735C148.777 33.303 115.48.006 74.402 0zm0 115.32c-22.61 0-40.94-18.33-40.94-40.94s18.33-40.94 40.94-40.94 40.94 18.33 40.94 40.94a40.94 40.94 0 01-40.94 40.98v-.04z" fill="#F7AF7E"/><path d="M19.532 103.24l-1.4-2.27.77-.48 1.48 1.91.15.23-1 .61zm6.07-2.08l-5.36 3.24-1.47-2.4c1.51-.87 3-1.8 4.51-2.72l.54-.33c1.51-.93 3-1.86 4.46-2.81l1.54 2.51c-1.5.85-3 1.79-4.2 2.51h-.02zm-.88 10.49l-1.51-2.45 5.43-6.95.3.48-8.56 1.89-.59-1 11.56-2.53.69 1.12-7.32 9.44zm.06.09l-.51-.83 4.94-3.2 4.49-2.77.58.94-9.5 5.86zm.78 1.27l-1.25-2.01 1-.64.14.24.93 2-.82.41zm4.11-12.87l-1.36-1.71-.41-.67-1.08-2.23.78-.48 2.84 4.61-.77.48zm4.69 7.61l-1.25-1.55-.26-.41-.66-1.57.77-.48 2.18 3.53-.78.48zM18.952 85c3.77-1.08 6.39.86 7.16 3.56.77 2.7-.38 5.72-4.19 6.81-3.81 1.09-6.39-.88-7.16-3.56-.77-2.68.38-5.72 4.19-6.81zm6.21 3.83c-.47-1.65-2.67-1.71-5.38-.94s-4.55 2-4.08 3.65c.47 1.65 2.69 1.71 5.39.94 2.7-.77 4.54-2.01 4.07-3.65zm-2.2-9.34l-.1-2c-.09-1.94-1.81-3.07-4.75-2.93-2.94.14-4.54 1.42-4.45 3.33l.09 2.05-1 .05-.11-2.32c-.17-3.61 1.84-5.89 5.27-6 3.43-.11 5.73 2.12 5.9 5.84l.09 2-.94-.02zm-4.85 1.66c-1.75.08-3.52.16-5.27.3l-.13-3c1.71 0 3.48-.11 5.26-.19h.56c1.82-.08 3.59-.17 5.33-.3l.14 2.95c-1.71 0-3.48.11-5.32.2l-.57.04zm-4.29 1.51h-.92l-.12-2.73 1.16-.06v.27l-.12 2.52zm9-8.333l-1.798-.147-.202 8h1.411l.574-7.18.015-.673zm-9.19-5.927l-.9-.16.47-2.69 1.15.2v.26l-.72 2.39zm4.52-.54c-1.73-.3-3.47-.61-5.2-.86l.51-2.91c1.68.35 3.42.65 5.18 1l.55.1c1.79.31 3.54.61 5.27.87l-.51 2.91c-1.68-.35-3.42-.65-5.18-1l-.62-.11zm-4.23-6.4l1.16-1-.93 5.29-1-.16 1-5.86 2.9.39-.24 1.39-2.89-.05zm5 1.81l-1.57-.54.17-1 3.61.63-.17 1h-1.73l-.31-.09zm.79-.39l-.65 3.68-1-.17.65-3.69 1 .18zm2.76-2.22l2.86.62-1.09 6.19-.93-.16 1-5.63.72 1.37-2.8-1 .24-1.39zm.62 6.61l1.15.2-.47 2.7-.9-.16.18-2.48.04-.26zm-.23-16.54a4.24 4.24 0 01-2.84-.34c-1.47-.79-1.79-2.39-.89-4.1.9-1.71 2.16-2.2 3.33-1.57 1.17.63 1.37 1.69 1.17 3.75l-.52.21a4 4 0 00-1.73-2.44 1.11 1.11 0 00-1.64.4 1.18 1.18 0 00.61 1.62 2.87 2.87 0 001.77.26 29.93 29.93 0 003.35-.79c2.24-.58 3.24-.88 5.31-1.44l-1.12.81 1.64-2 1 .69a7 7 0 01-.56 1.58 3.45 3.45 0 01-2 1.79 25.23 25.23 0 01-3.54.87l-3.34.7zm2.17 1.37a2.23 2.23 0 003.11-1 2.68 2.68 0 00.22-2.22l.64-.19a4 4 0 01-.15 4.1c-1.07 2-2.85 2.42-4.27 1.67-1.42-.75-1.86-2-1.52-4.46h.47a2.8 2.8 0 001.5 2.1zm.88-7.52l-1 1.36-.67-.36 1.76-3.31.67.36-.55 1.63-.21.32zm-.61 0l.62-1.17a12.24 12.24 0 012.9 4.2l-.65.32a9.43 9.43 0 00-2.87-3.33v-.02zm3.61-10.93l-.63-.66 2-1.88.8.85-.19.18-1.98 1.51zm4 2.32c-1.23-1.29-2.46-2.59-3.72-3.84l2.11-2c1.17 1.3 2.4 2.6 3.64 3.91l.29.3c1.28 1.35 2.5 2.64 3.76 3.9l-2.11 2c-1.16-1.3-2.39-2.6-3.63-3.91l-.34-.36zm.72-1.31l1.34-1.28a1.83 1.83 0 00.13-2.93 1.66 1.66 0 00-2.7 0l-1.46 1.38-.67-.71 2-1.9c2.09-2 3.66-1.9 4.69-.81.87.91 1 2.23-.74 4.36l-.11-.11c2.31-1.94 3.91-2 5-.78 1 1 1.4 3-1.67 5.9l-1.53 1.45-.67-.71 1.43-1.35c1.14-1.09 1.29-2.26.3-3.3s-2.11-1.06-3.34.11l-1.42 1.34-.58-.66zm3.52 3.71l.8.85-2 1.88-.63-.66 1.61-1.88.22-.19zm1.84-13.67l-.48-.78 2.35-1.42.6 1-.23.14-2.24 1.06zm3.37 3.05c-.91-1.5-1.82-3-2.77-4.48l2.53-1.54c.85 1.5 1.76 3 2.68 4.54l.29.48c.94 1.56 1.86 3.07 2.81 4.54l-2.53 1.53c-.85-1.49-1.76-3-2.68-4.53l-.33-.54zm2-7.39l1.55.18-4.6 2.78-.49-.82 5.08-3.08 1.62 2.45-1.21.73-1.95-2.24zm2.72 5.26l-3.21 1.93-.52-.85 3.21-1.94.52.86zm-1.09 5.44l.6 1-2.34 1.41-.47-.78 2-1.49.21-.14zm.27-5.78l-.62-1.53.84-.51 1.9 3.13-.85.51-1.1-1.33-.17-.27zm4.3 1l1.41 2.57-5.38 3.25-.49-.81 4.89-3-.56 1.45-1.04-2.74 1.17-.72zm2.13 1.09l1.58-.8.29-.1 1.61-.27.29.87-3.48 1.16-.29-.86zm1.32-11.29l1.67-.56 7.18 9.41-2.76.92-5.65-7.74.33-1 .09 10.51-1 .32.14-11.86zm.48 7.18l4.35-1.46.68.82-5 1.67-.03-1.03zm3.77 2.28l1.75-.85 1.07-.36 2.15-.45.28.83-5 1.66-.25-.83zm4.41-11.1l-.09-.91 5.52-.56.09.91-2.49.51-.49.05h-2.54zm7.41 8.32c1.52-.15 2.32-1.25 2.07-3.8l-.64-6.33 1.1-.11.64 6.32c.36 3.59-1.15 5.28-4 5.56-2.5.25-4.44-.81-4.77-4.09l-.18-1.84c-.17-1.66-.34-3.38-.56-5.06l2.94-.3c.11 1.67.28 3.38.46 5.08l.13 1.3c.31 2.59 1.26 3.44 2.81 3.27zm1.8-9.09h-1.81l-.09-.91 4-.4.09.91-1.72.33-.47.07zm6.3-.1l1.34-.78-.86 3.07-1.41-.19.49-3.12 9.89 1.35-.38 3.13-1.39-.19v-3.19l1.08 1.12-8.76-1.2zm3.5 9.6l2.5.6-.12.91-5.77-.79.12-.9 2.53.08.74.1zm-1.15-4.92c.24-1.74.48-3.49.66-5.23l2.93.4c-.28 1.69-.52 3.44-.76 5.21l-.08.61c-.24 1.75-.48 3.5-.67 5.24l-2.93-.4c.29-1.69.53-3.44.77-5.21l.08-.62zM92.672 26l2.31 1.13-.32.85-5.46-2 .32-.86 2.45.64.7.24zm-.25-4.46l2.67 1c-.89 2.41-1.28 3.47-1.78 4.95l-2.77-1c.58-1.44.99-2.49 1.88-4.94v-.01zm-1.82-6l.32-.86 5.14 1.91-.32.86-2.11-.52-.7-.25-2.33-1.14zm1.59 7.63l-.84-8.32 3.06 1.13.44 6.46-.53-.11 4.67-4.66 1.08.4-6.09 5.76-1.79-.66zm6.31-4.43l-1.41-.8.31-.85 3.3 1.22-.32.85-1.51-.28-.37-.14zm8.4 9.95a2.24 2.24 0 11.39 3.17 2.19 2.19 0 01-.39-3.17zm7.25 12.2l1.27 1.54.26.41.68 1.56-.78.49-2.2-3.52.77-.48zm9.57-4.06l.52.83-4.93 3.23-4.48 2.81-.58-.94 9.47-5.93zm.06.09l1.53 2.45-5.39 7-.3-.48 8.55-1.95.59 1-11.55 2.6-.7-1.11 7.27-9.51zm-4.88 11.55l1.37 1.71.42.66 1.09 2.23-.77.49-2.88-4.56.77-.53zm4.07-1.05l5.34-3.26 1.5 2.4c-1.5.88-3 1.82-4.49 2.75l-.54.34c-1.5.94-3 1.88-4.44 2.84l-1.57-2.5c1.51-.88 3-1.83 4.2-2.57zm0-11.85l1.29 2.05-1 .65-.15-.24-.94-2 .8-.46zm6.1 9.74l1.42 2.26-.78.49-1.49-1.91-.14-.22.99-.62zm.62 18.25c-3.77 1.08-6.39-.86-7.16-3.56-.77-2.7.38-5.73 4.19-6.82 3.81-1.09 6.39.88 7.16 3.57.77 2.69-.35 5.72-4.19 6.81zm-6.16-3.83c.47 1.64 2.67 1.71 5.38.93 2.71-.78 4.55-2 4.08-3.64-.47-1.64-2.69-1.72-5.39-.94-2.7.78-4.59 2-4.07 3.65zm2.4 9.32l-1.16.06-.15-2.73.91-.05.39 2.45.01.27zm4.65-1.68c1.75-.09 3.52-.19 5.27-.33l.15 2.95c-1.71 0-3.48.14-5.26.23h-.56c-1.82.1-3.59.19-5.33.34l-.16-3c1.72 0 3.48-.13 5.32-.23l.57.04zm-4.84 1.69l.11 2c.11 1.94 1.84 3.05 4.78 2.9 2.94-.15 4.53-1.45 4.43-3.36l-.11-2.05 1-.06.13 2.32c.19 3.62-1.81 5.91-5.24 6.09-3.43.18-5.74-2.09-5.94-5.8l-.1-2 .94-.04zm9.13-3.23l.91-.05.14 2.73-1.16.07v-.27l.11-2.48zm-8.48 22.07l-2.87-.61 1.05-6.2.93.16-1 5.64-.73-1.38 2.81 1-.19 1.39zm4.23-7.23c1.73.29 3.47.58 5.21.82l-.5 2.92c-1.68-.34-3.42-.63-5.18-.93l-.55-.09c-1.8-.3-3.54-.6-5.28-.84l.5-2.91c1.68.33 3.42.63 5.18.92l.62.11zm-4.9.62l-1.15-.2.45-2.69.9.15-.16 2.47-.04.27zm4.2 4l1.57.52-.17 1-3.61-.61.17-1h1.73l.31.09zm-.78.39l.62-3.69 1 .17-.63 3.69-.99-.17zm5.75 1.38l-1.15 1 .89-5.3.95.16-1 5.86-2.91-.36.24-1.4 2.98.04zm.25-6.94l.9.15-.46 2.7-1.15-.19v-.27l.71-2.39zm-9.13 17.71a4.21 4.21 0 012.85.33c1.47.77 1.81 2.38.91 4.1-.9 1.72-2.15 2.21-3.32 1.59-1.17-.62-1.38-1.69-1.2-3.75l.53-.21a3.94 3.94 0 001.74 2.43 1.11 1.11 0 001.64-.41 1.18 1.18 0 00-.62-1.62 2.9 2.9 0 00-1.78-.25 33.36 33.36 0 00-3.34.81c-2.24.59-3.23.9-5.31 1.47l1.12-.82-1.63 2-1-.68a7.26 7.26 0 01.56-1.59 3.41 3.41 0 011.95-1.79 25.82 25.82 0 013.53-.9c1.89-.4 2.7-.54 3.37-.71zm-2.17-1.35a2.23 2.23 0 00-3.11 1 2.66 2.66 0 00-.21 2.21l-.64.2a4.06 4.06 0 01.13-4.1c1.06-2 2.83-2.44 4.26-1.7 1.28.67 1.88 2 1.55 4.46l-.48.05a2.77 2.77 0 00-1.5-2.12zm-.24 7.5l-.61 1.17a12.26 12.26 0 01-2.92-4.18l.65-.32a9.5 9.5 0 002.88 3.35v-.02zm-.6 0l1-1.36.68.35-1.75 3.32-.67-.35.54-1.64.2-.32zm-7.66 10.02l-1.33 1.29a1.82 1.82 0 00-.11 2.93 1.67 1.67 0 002.7 0l1.45-1.39.68.7-2 1.91c-2.08 2-3.64 1.93-4.68.85-.87-.92-1-2.23.71-4.37l.11.11c-2.3 1.95-3.89 2-5 .81-1-1-1.42-3 1.63-5.91l1.52-1.46.68.7-1.42 1.37c-1.14 1.08-1.28 2.25-.28 3.29s2.11 1 3.34-.12l1.41-1.36.59.65zm.72-1.32c1.23 1.29 2.47 2.58 3.73 3.83l-2.1 2c-1.16-1.29-2.41-2.59-3.66-3.89l-.28-.3c-1.29-1.34-2.52-2.63-3.79-3.87l2.1-2c1.17 1.3 2.4 2.58 3.66 3.89l.34.34zm-4.26-2.37l-.81-.84 2-1.9.63.66-1.6 1.89-.22.19zm8.27 4.67l.63.66-2 1.89-.81-.84.19-.19 1.99-1.52zm-21.64 7.5l-1.43-2.56 5.36-3.29.5.81-4.88 3 .55-1.44 1.1 2.76-1.2.72zm4.31.93l.63 1.53-.84.51-1.91-3.12.84-.51 1.11 1.32.17.27zm3.92-2.49c.92 1.49 1.84 3 2.8 4.46l-2.52 1.55c-.85-1.49-1.78-3-2.71-4.52l-.29-.48c-1-1.55-1.88-3.06-2.84-4.52l2.52-1.55c.85 1.49 1.78 3 2.71 4.52l.33.54zm-2 7.4l-1.55-.17 4.58-2.81.5.82-5.07 3.1-1.59-2.43 1.21-.74 1.92 2.23zm-2.75-5.24l3.19-2 .53.86-3.19 1.95-.53-.81zm1.05-5.45l-.61-1 2.33-1.42.48.77-2 1.51-.2.14zm7.08 6.32l.48.77-2.33 1.44-.61-1 .23-.14 2.23-1.07zm-19.25-.73l-1.74.86-1.07.37-2.15.47-.28-.83 5-1.7.24.83zm4.3 9.43l-1.66.56-7.23-9.35 2.75-.94 5.69 7.7-.32 1-.16-10.5.95-.32-.02 11.85zm-.51-7.18l-4.35 1.53-.68-.82 5-1.7.03.99zm1.76-4.11l-1.57.81-.29.1-1.6.28-.3-.87 3.47-1.18.29.86zm-19.12 13.81h1.81l.1.91-4 .43-.1-.91 1.72-.34.47-.09zm1.75-9.1c-1.51.16-2.31 1.27-2 3.82l.67 6.32-1.1.12-.71-6.33c-.38-3.59 1.12-5.28 3.91-5.58 2.5-.26 4.45.78 4.8 4.06l.19 1.84c.18 1.67.36 3.38.59 5.06l-2.94.31c-.13-1.66-.31-3.37-.49-5.07l-.14-1.3c-.22-2.58-1.17-3.42-2.78-3.25zm7.46 8.29l.09.9-5.51.59-.1-.91 2.49-.52.48-.05 2.55-.01zm-15.5.96l-1.35.79.85-3.08 1.41.19-.47 3.12-9.9-1.29.36-3.14 1.39.19v3.19l-1.09-1.11 8.8 1.14zm-3.56-9.58l-2.51-.59.11-.9 5.78.75-.12.9-2.53-.07-.73-.09zm1.15 4.92c-.22 1.74-.45 3.49-.63 5.23l-2.93-.38c.27-1.7.5-3.45.73-5.22l.08-.61c.23-1.75.46-3.5.63-5.25l2.93.38c-.27 1.7-.5 3.46-.73 5.22l-.08.63zm-17.99-.4l1.42.79-.31.86-3.31-1.21.32-.85 1.51.27.37.14zm6.29-4.47l.89 8.32-3.04-1.11-.47-6.47.52.12-4.64 4.68-1.08-.39 6.05-5.8 1.77.65zm1.63 7.62l-.31.86-5.15-1.87.31-.86 2.12.5.7.25 2.33 1.12zm-1.85-6l-2.68-1c.88-2.41 1.26-3.48 1.75-5l2.78 1c-.54 1.51-.92 2.59-1.82 5.01l-.03-.01zm-.27-4.45l-2.33-1.12.32-.86 5.47 2-.31.86-2.45-.62-.7-.26zm-14.23-2.59a2.24 2.24 0 11-.4-3.16 2.17 2.17 0 01.4 3.16z" fill="#91116A"/></g></svg>