<svg width="149" height="149" xmlns="http://www.w3.org/2000/svg"><g fill="none"><path d="M74.392 0C44.303 0 17.177 18.126 5.664 45.924c-11.514 27.8-5.147 59.797 16.13 81.071 21.278 21.275 53.276 27.637 81.073 16.12 27.797-11.518 45.92-38.646 45.915-68.735A74.38 74.38 0 0074.392 0zm0 115.32c-22.61 0-40.94-18.33-40.94-40.94s18.33-40.94 40.94-40.94 40.94 18.33 40.94 40.94a40.94 40.94 0 01-40.94 40.98v-.04z" fill="#FFC800"/><path d="M19.172 107.24l.15-1.89 3.67 5.54-1 .64-4.05-6.11 2.87-2.08 1 1.43-2.64 2.47zm9.12 2.21c-1.76 1.17-3.55 2.35-5.28 3.57l-2-3c1.77-1.1 3.55-2.28 5.35-3.48l.57-.37c1.84-1.22 3.62-2.4 5.36-3.62l2 3c-1.76 1.1-3.55 2.28-5.35 3.48l-.65.42zm-3.52 4.23l-.92.61-1.83-2.76 1.18-.78.18.27 1.39 2.66zm.3-8.93l-1.81.83-.66-1 3.86-2.57.66 1-1.56 1.4-.49.34zm.37-1l2.54 3.83-1 .67-2.54-3.83 1-.67zm6.33.57l-1.39-2.66.92-.61 3.83 5.77-.93.61-1.9-2.32-.53-.79zM14.672 98l-.75-2 11.05-9.11 1.24 3.29-9.1 7.19-1.24-.37 12.7-.58.43 1.14-14.33.44zm8.67-.9l-2-5.2 1-.85 2.24 6-1.24.05zm2.58-4.67l-1.11-2.07-.48-1.29-.65-2.58 1-.37 2.24 5.93-1 .38zm2.46 6.66l-1-1.88-.13-.34-.4-1.94 1-.39 1.57 4.16-1.04.39zM10.062 71.8l-.14-3.24h1.11l.43 2.89v.33l-1.4.02zm7.64 1.4l-7.57.24-.14-3.43c2.1 0 4.24-.11 6.37-.2h.77c2.14-.09 4.28-.18 6.37-.33l.15 3.57c-2.11-.05-4.25.1-5.95.15zm-7.15 10.56l-.14-3.49 9.86-4.12v.69l-10.1-3.09-.06-1.35 13.71 4.18.07 1.59-13.34 5.59zm0 .13l-.05-1.18 7.12-.45 6.39-.26v1.33l-13.46.56zm.07 1.8l-.12-2.93 1.41-.09V83l-.2 2.65-1.09.04zm12-11.15l-.41-2.62v-.95l.18-3 1.11-.05.27 6.56-1.15.06zm.45 10.82l-.41-2.38v-.59l.22-2.05h1.11l.2 5-1.12.02zm-10.9-21.9l-1.07-.25 1.5-6.47 1.07.25-.38 3-.14.59-.98 2.88zm5.5-.35c-2.06-.48-4.15-1-6.23-1.38l.81-3.49c2 .53 4.1 1 6.2 1.5l.73.17c2.08.48 4.17 1 6.25 1.39l-.81 3.48c-2-.52-4.1-1-6.21-1.5l-.74-.17zm6-.66l1-2.9 1.07.25-1.5 6.47-1.07-.25.37-3 .13-.57zm-8.7-9.76l-1-.46 2.86-6.16 1 .47-1 2.89-.32.69-1.54 2.57zm-.36-1.84l1.56-3.25c1.87.94 3.81 1.84 5.76 2.75l1 .45c1.64.77 3.58 1.67 5.52 2.5l-1.51 3.25c-1.87-.94-3.81-1.84-5.37-2.57l-1.08-.5c-2-.9-3.94-1.8-5.88-2.63zm11.74 3.48l1.28.6-1.39 3-1-.47 1-2.84.11-.29zm.81-8l3.57 1.89-3.1 6.67-1.07-.5 2.81-6 .41 1.91-3.32-2.43.7-1.54zm-5.33-6.87l-.89-.66 4-5.33.89.66-1.57 2.63-.36.49-2.07 2.21zm5.18 1.88c-1.7-1.27-3.42-2.55-5.16-3.76l2.14-2.87c1.63 1.29 3.35 2.56 5.08 3.85l.6.45c1.72 1.27 3.43 2.55 5.17 3.76l-2.13 2.88c-1.63-1.29-3.35-2.57-5.09-3.86l-.61-.45zm5.8 1.8l2.06-2.26.89.66-4 5.33-.89-.66 1.54-2.58.4-.49zm-4.15-12.46l-.73-.83 2.49-2.19.93 1.06-.24.22-2.45 1.74zm4.68 2.92c-1.4-1.6-2.82-3.2-4.26-4.76l2.68-2.36c1.33 1.6 2.75 3.21 4.17 4.83l.45.51c1.46 1.66 2.87 3.27 4.32 4.82L38.012 39c-1.33-1.6-2.74-3.21-4.17-4.83l-.5-.57zm.85-9.26l1.89-.11-4.89 4.3-.77-.87 5.41-4.76 2.45 2.57-1.29 1.14-2.8-2.27zm4.36 5.7L35.172 33l-.8-.91 3.41-3 .77.95zm-.13 6.72l.94 1.06-2.49 2.18-.73-.83 2-2.21.28-.2zm-.91-6.95l-1.07-1.69.89-.79 2.93 3.33-.89.79-1.61-1.36-.25-.28zm5.33.22l2.24 2.76-5.72 5-.76-.86 5.2-4.57-.36 1.84-1.89-3.06 1.29-1.11zm5.72-6.78a2.71 2.71 0 113.59 1.41 2.64 2.64 0 01-3.59-1.41zm12.86-10.72l-.13-1.1 3.28-.4.18 1.4h-.33l-3 .1zm2.22 5c-.26-2.1-.52-4.23-.84-6.32l3.55-.44c.19 2.07.46 4.19.72 6.34l.09.67c.27 2.19.53 4.31.85 6.41l-3.55.44c-.2-2.07-.46-4.2-.72-6.34l-.1-.76zm3 5.4l3-.06.14 1.09-6.87.85-.14-1.09 2.93-.68.94-.11zm3-12.58l1.62 1-6.59.82-.1-1.17 7.28-.9.58 3.5-1.71.21-1.08-3.46zm.32 7.17l-4.56.56-.15-1.2 4.56-.57.15 1.21zm-.73-.78l.06-2 1.19-.15.57 4.6-1.19.15-.56-2-.07-.6zm3.67 5.55l2.14-.08h.37l1.91.51-.11 1.1-4.42-.46.11-1.07zm7.1-11.78l2.12.22 3.22 14-3.5-.36L79.472 13l.88-1-5.18 11.64-1.21-.12 6.04-13.01zm-3.07 8.16l5.53.57.34 1.24-6.33-.66.46-1.15zm3 4.4l2.35-.07 1.37.14 2.59.58-.1 1-6.32-.65.11-1zm7.61.59l2.32.7.54.25 1.72 1.12-.45 1-4.58-2.06.45-1.01zm6.93-10.5l1.07.48-2.79 6.56-2.64 5.8-1.21-.55 5.57-12.29zm-1.65-.75l2.68 1.21-.56 1.3-.3-.13-2.28-1.37.46-1.01zm1.76.8l3.19 1.44-.75 10.65-.62-.28 7.31-7.69 1.24.56-9.9 10.37-1.45-.65.98-14.4zm2.84 14.91l2.52.8.87.39 2.59 1.51-.45 1-6-2.71.47-.99zm3.39-3.79l3.19-6.87 3.13 1.41c-.93 1.9-1.81 3.85-2.69 5.79l-.31.7c-.89 2-1.77 3.91-2.57 5.84l-3.25-1.47c.92-1.9 1.79-3.85 2.5-5.4zm4.68-6.19l3 1.33-.46 1-2.78-.92-.3-.14.54-1.27zm2.25 16.4l2.15 2.17-.7.86-5.12-4.23.7-.86 2.5 1.67.47.39zm2.1-5.7c1.35-1.64 2.71-3.29 4-5l2.76 2.28c-1.37 1.56-2.74 3.21-4.12 4.88l-.47.58c-1.36 1.64-2.73 3.29-4 5l-2.76-2.28c1.37-1.57 2.74-3.22 4.11-4.88l.48-.58zm2.14-5.08l.7-.85 5.12 4.23-.7.85-2.55-1.7-.46-.39-2.11-2.14zm1.86 16.73l-1.11.88-2.06-2.59.86-.69 2.11 2.14.2.26zm8.35-8.95l2.23 2.81c-1.67 1.25-3.34 2.58-5 3.92l-.84.68a183.89 183.89 0 00-4.7 3.82l-2.23-2.8c1.67-1.25 3.34-2.59 4.69-3.66l.93-.74c1.64-1.33 3.31-2.66 4.9-4.03h.02zm-1.6 13.23l-3.28 2.35-4.58-5.75.92-.73 4.15 5.2-1.89-.49 3.65-1.88 1.03 1.3zm-.21-13.77l.87-.69 4.22 5.31-.86.69-2.14-2.19-.47-.59-1.62-2.53zm.55 20.25l1.09 2.86-1 .5-3-5.94 1-.49 1.62 2.53.29.54zm4.22-4.37c1.89-.95 3.81-1.92 5.67-2.92l1.61 3.2c-1.88.88-3.8 1.84-5.73 2.81l-.67.33c-1.91 1-3.82 1.93-5.69 2.93l-1.61-3.2c1.89-.88 3.8-1.84 5.74-2.81l.68-.34zm4-3.79l1-.49 3 5.93-1 .5-1.64-2.59-.27-.54-1.09-2.81zm-4.98 16.06l-1.37.36-.84-3.21 1.07-.28 1.06 2.81.08.32zm5.1-3.13c2.05-.54 4.12-1.09 6.16-1.69l.91 3.47c-2 .47-4.1 1-6.19 1.56l-.65.17c-2.14.56-4.21 1.11-6.24 1.71l-.91-3.46c2-.47 4.09-1 6.18-1.57l.74-.19zm-1.1 10.09l-3.47.76-1.94-7.36 1.11-.29 1.77 6.69-1.47-1.15 3.58-.32.42 1.67zm2.58-4.67l2-.2.3 1.15-4.28 1.13-.31-1.15 1.93-.83.36-.1zm-.67.83l-1.15-4.38 1.17-.31 1.16 4.38-1.18.31zm7-1.35l-.75 1.74-1.65-6.3 1.12-.29 1.83 7-3.39 1-.43-1.66 3.27-1.49zm-3.19-7.78l1.07-.28.84 3.21-1.37.36-.08-.32-.46-2.97zm-2.21 21.07a2.71 2.71 0 11-2.86 2.59 2.64 2.64 0 012.86-2.59zm-7.85 16.37l-1.3 2.71-1-.37 2.33-6.52 1 .37-.71 2.92-.32.89zm6.18-.29c2 .71 4 1.43 6 2.08l-1.21 3.37c-1.93-.75-3.95-1.47-6-2.2l-.64-.22c-2.07-.74-4.09-1.46-6.11-2.12l1.21-3.37c1.93.76 3.95 1.48 6 2.2l.75.26zm-1.84 5.39l1.75 1-.4 1.12-4.35-1.6.4-1.12 2.06.4.54.2zm-1 .31l1.54-4.33 1.14.4-1.54 4.33-1.14-.4zm6.54 2.92l-1.59 1 2.23-6.26 1.09.39-2.46 6.96-3.39-1.06.58-1.62 3.54.59zm1.8-8.34l1.05.37-1.12 3.12-1.33-.48.11-.3 1.29-2.71zm-17.72 11.84l-1 2.13-.74 1.17-1.68 2.06-.89-.57 3.4-5.36.91.57zm11.22 5.64l-1.14 1.8-13.93-3.35 1.89-3 11.22 3 .46 1.21-8.1-9.8.65-1 8.95 11.14zm-7.38-11.61l-.87 1.95-.2.31-1.3 1.49-.94-.59 2.38-3.75.93.59zm1.45 5.23l-3 4.69-1.27-.25 3.41-5.38.86.94zm-17.6 14.12l-1.85 1.9-.73.6-2.51 1.65-.7-.86 5.09-4.15.7.86zm1.87 4.73l4.72 5.92-2.66 2.17c-1.28-1.68-2.63-3.34-4-5l-.48-.59c-1.36-1.67-2.71-3.33-4.08-4.91l2.77-2.26c1.3 1.69 2.66 3.34 3.73 4.67zm12.74-.61l-2.71 2.21-9.21-5.43.53-.43 3.62 10-1 .86-4.86-13.49 1.23-1 12.4 7.28zm-9.29 7.57l-2.51 2-.7-.86 2.07-2.08.25-.2.89 1.14zm3.08-18.48l-1.71 1.7-.46.37-1.77 1.05-.69-.86 3.89-3.17.74.91zm6.3 10.88l-.91.75-4.62-5.43-4-5 1-.84 8.53 10.52zm1.41-1.14l-2.28 1.86-.92-1.08.26-.21 2.24-1.43.7.86zm-26.42 3.38l-2.91.94-.45-1 6.08-2.68.44 1-2.61 1.49-.55.25zm4.15 4.43c.86 1.94 1.72 3.9 2.63 5.81l-3.27 1.45c-.79-1.93-1.65-3.89-2.52-5.87l-.31-.68c-.86-1.95-1.72-3.91-2.63-5.83l3.27-1.45c.79 1.93 1.65 3.89 2.52 5.87l.31.7zm3.58 4.19l.45 1-6.08 2.68-.45-1 2.67-1.51.55-.25 2.86-.92zM80.242 129l-.64-4 7.18-1.53.25 1.15-6.51 1.38 1.28-1.47.05 4.11-1.61.36zm11.11 7.34l-3.5.75c-.37-2.06-.82-4.16-1.27-6.26l-.22-1.06c-.38-1.77-.83-3.86-1.33-5.91l3.51-.75c.37 2.06.82 4.15 1.17 5.83l.25 1.17c.45 2.13.89 4.22 1.39 6.27v-.04zm1.26-1.4l.23 1.08-6.67 1.46-.23-1.08 2.92-.94.73-.16 3.02-.36zm-5.53-10.07l-.3-1.38 3.24-.69.23 1.08-2.85.92-.32.07zm-12.8 1.59l-3.05-.29v-1.11h6.64v1.11l-3 .32-.59-.03zm3.64 11v1.1h-6.64v-1.1l3.05-.33h.6l2.99.33zm-1.6-5.27c0 2.12 0 4.26.09 6.38h-3.59c.06-2.09.05-4.23 0-6.39v-.75c0-2.13 0-4.27-.1-6.4h3.59c-.06 2.08-.05 4.22 0 6.38l.01.78zm-17.94 4.41l-1.21-1.44 6.37 1.34-.24 1.14-7-1.49.59-3.49 1.68.35-.19 3.59zm-.62-10.32l.87-3.44 7.45 1.57-.24 1.12-6.77-1.43 1.7-.81-1.33 3.34-1.68-.35zm3 4.4l-.71 1.87-1.17-.25.92-4.34 1.16.25-.12 2.1-.08.37zm-.44-1l4.44.93-.25 1.19-4.44-.93.25-1.19zm6 2c-.44 2.08-.88 4.17-1.25 6.26l-3.51-.74c.49-2 .93-4.12 1.38-6.23l.14-.66c.45-2.16.89-4.26 1.27-6.34l3.5.73c-.49 2-.93 4.12-1.37 6.24l-.16.74zm.46 5.49l-.22 1.08-3.25-.68.3-1.38.31.06 2.86.92zm-1-11.45l.29-1.38 3.24.68-.23 1.08-3-.31-.3-.07zm-19.56-1.36a2.71 2.71 0 11-.84-3.77 2.64 2.64 0 01.84 3.77z" fill="#00777A"/></g></svg>