<svg width="149" height="149" xmlns="http://www.w3.org/2000/svg"><g fill="none"><path d="M74.402 0C44.312-.004 17.183 18.119 5.667 45.918-5.85 73.716.514 105.715 21.79 126.992c21.276 21.276 53.275 27.64 81.074 16.123 27.798-11.516 45.921-38.645 45.917-68.735 0-41.079-33.3-74.38-74.38-74.38zm0 115.32c-22.61 0-40.94-18.33-40.94-40.94s18.33-40.94 40.94-40.94 40.94 18.33 40.94 40.94a40.94 40.94 0 01-40.94 40.98v-.04z" fill="#A2D0CB"/><path d="M25.142 113.87l-.9.65-3.87-5.4.9-.64 2 2.29.36.49 1.51 2.61zm3.36-4.36c-1.72 1.24-3.46 2.48-5.15 3.77l-2.09-2.91c1.73-1.16 3.47-2.41 5.23-3.67l.61-.43c1.73-1.25 3.47-2.5 5.16-3.78l2.08 2.91c-1.72 1.16-3.46 2.41-5.22 3.67l-.62.44zm3.49-5l-1.53-2.66.9-.64 3.87 5.4-.9.64-2-2.25-.34-.49zm-19.58-12.73l-1.12-3 1-.38 1.3 2.62.11.31-1.29.45zm7.7-1l-7.13 2.56-1.19-3.22c2-.68 4-1.42 6-2.16l.72-.26c2-.74 4-1.49 6-2.27l1.24 3.35c-2.03.65-4.04 1.41-5.61 1.98l-.03.02zM16.562 103l-1.21-3.28 8.12-7 .23.64-10.56.25-.47-1.27 14.34-.23.55 1.49-11 9.4zm0 .12l-.4-1.11 6.63-2.61 6-2.22.46 1.25-12.69 4.69zm.63 1.69l-1-2.75 1.32-.52.12.31.62 2.58-1.06.38zm8-14.29l-1.2-2.37-.33-.88-.74-2.91 1-.39 2.28 6.16-1.01.39zm3.76 10.16l-1.13-2.15-.2-.55-.42-2 1-.39 1.74 4.72-.99.37zm-17.81-24.37l-1.11-.06.18-3.31 1.42.08v.32l-.49 2.97zm5.35-1.3c-2.11-.11-4.25-.23-6.37-.28l.19-3.58c2.07.18 4.21.29 6.37.41h.68c2.2.12 4.34.23 6.46.29l-.19 3.57c-2.08-.17-4.22-.29-6.38-.4l-.76-.01zm-6-7.22l1.24-1.42-.36 6.63-1.16-.06.4-7.32h3.55l-.09 1.72-3.58.45zm6.22 1.53l-1.95-.41.06-1.2 4.63.26-.06 1.19-2.09.19-.59-.03zm.89-.58l-.24 4.59-1.22-.07.25-4.59 1.21.07zm4.74 4.26l.47-3 1.11.06-.38 6.94-1.1-.06-.15-3 .05-.94zm-.42-22.69c4.51 1.49 5.81 5.21 4.74 8.44-1.07 3.23-4.28 5.47-8.83 4-4.55-1.47-5.8-5.24-4.74-8.44 1.06-3.2 4.27-5.5 8.83-4zm3.61 8.07c.65-2-1.51-3.54-4.75-4.61-3.24-1.07-5.93-1.09-6.57.88-.64 1.97 1.53 3.54 4.76 4.61 3.23 1.07 5.91 1.08 6.56-.88zm-6.8-14.26l-.91-.62 3.67-5.36.92.63-1.39 2.56-.34.5-1.95 2.29zm5.25 1.68c-1.75-1.2-3.51-2.41-5.3-3.56l1.94-2.83c1.68 1.23 3.45 2.44 5.23 3.66l.74.51c1.64 1.12 3.41 2.33 5.19 3.48l-1.94 2.83c-1.68-1.22-3.44-2.43-5.23-3.66l-.63-.43zm-.64-8.39l-.91-.63 2.71-3.93.91.63-1.09 2.14-.32.51-1.3 1.28zm3.8 8.44l-3.3-11.08.86-1.27 3.63 13.16-1.19-.81zm-1.43-6.6l10.63 1.21-2.2 3.11-7.55-1.07-.88-3.25zm4.17 8.13l1.77-2 .91.63-3.55 5.17-.91-.63 1.43-2.64.35-.53zm2.52-3.13l1.31-2.46.27-.39 1.78-2.06.92.63-3.37 4.91-.91-.63zm-3.21-14.32l-.69-.85 5.2-4.24.7.85-2.18 2.18-.46.37-2.57 1.69zm13.05 3.48c1.43-1.17 1.51-2.82-.45-5.23l-4.86-6 1-.85 4.86 6c2.76 3.39 2.35 6.1-.29 8.25-2.36 1.92-5 2.15-7.55-.94l-1.41-1.74c-1.28-1.58-2.6-3.19-3.95-4.75l2.78-2.26c1.23 1.6 2.54 3.22 3.85 4.83l1 1.22c2.03 2.45 3.51 2.7 5.02 1.47zM37.992 23l-1.85 1.25-.69-.86 3.81-3.1.69.86-1.52 1.48-.44.37zm15.99 2c-.44-1-1.13-1.22-2.49-1.21h-1c-2.67 0-4.45-.55-5.38-2.62-1-2.26.18-4.45 3-5.73a7.21 7.21 0 014-.65l1 2.7-1.72.78-1.73-2.63 1.75-.15.42.94a4.76 4.76 0 00-3.17.1 2 2 0 00-1.17 2.58c.45 1 1.28 1.24 2.62 1.24h1.13c2.88 0 4.33.59 5.19 2.49 1 2.21 0 4.54-3.19 6a9 9 0 01-4.52.86l-1.14-2.84 1.74-.79 1.87 2.82-1.66.2-.41-.9a6.61 6.61 0 003.61-.46 2 2 0 001.25-2.73zm33.9-6.27a2.71 2.71 0 111.83 3.4 2.65 2.65 0 01-1.83-3.4zm29.49 26.42l1.48 2.68-.92.63-3.79-5.46.91-.63 1.95 2.29.37.49zm3.58-4.91c1.75-1.2 3.51-2.42 5.22-3.67l2 2.95c-1.74 1.13-3.51 2.34-5.29 3.57l-.61.42c-1.76 1.21-3.53 2.43-5.24 3.68l-2-2.95c1.75-1.13 3.51-2.34 5.29-3.57l.63-.43zm3.45-4.3l.91-.63 3.77 5.48-.92.62-2-2.33-.34-.5-1.42-2.64zM120.272 49l1.09 2.16.19.56.38 2-1 .36-1.65-4.74.99-.34zm12.39-2.21l.38 1.11-6.68 2.49-6 2.11-.44-1.26 12.74-4.45zm0 .12l1.15 3.3-8.21 6.79-.22-.64h10.61l.45 1.29h-14.34l-.52-1.5 11.08-9.24zm-8.86 12.32l1.15 2.38.32.89.69 2.93-1.05.36-2.16-6.2 1.05-.36zm5.08-.15l7.26-2.38 1.12 3.24c-2 .64-4 1.34-6 2l-.72.26c-2 .7-4 1.41-6 2.15l-1.26-3.35c2.01-.61 4.03-1.33 5.64-1.88l-.04-.04zm3.14-14l1 2.78-1.33.49-.11-.32-.57-2.59 1.01-.36zm4.58 13.13l1.06 3.06-1 .36-1.25-2.63-.11-.3 1.3-.49zm-10.24 18.64l-.53 2.95-1.1-.08.5-6.9 1.11.08.09 3-.07.95zm5.88-1.93c2.12.15 4.25.3 6.37.4l-.26 3.57c-2.07-.21-4.2-.37-6.36-.53l-.67-.05c-2.2-.16-4.34-.31-6.46-.4l.26-3.57c2.07.21 4.21.36 6.36.52l.76.06zm-.32 5.68l1.95.45-.09 1.19-4.63-.33.09-1.19 2.09-.16.59.04zm-.9.57l.33-4.59 1.21.09-.33 4.58-1.21-.08zm7.09 1.07l-1.27 1.4.48-6.62 1.16.08-.53 7.32-3.54-.11.12-1.72 3.58-.35zm-.49-8.52l1.1.08-.24 3.3-1.41-.1v-.32l.55-2.96zm-11.27 25.82c-4.48-1.57-5.71-5.32-4.58-8.53 1.13-3.21 4.38-5.39 8.91-3.8 4.53 1.59 5.69 5.35 4.58 8.54-1.11 3.19-4.38 5.38-8.91 3.79zm-3.46-8.13c-.68 1.95 1.45 3.56 4.67 4.69 3.22 1.13 5.9 1.21 6.58-.74.68-1.95-1.46-3.58-4.67-4.71s-5.89-1.2-6.58.76zm-7.09 13.99l-1.36 2.43-.27.38-1.83 2-.9-.64 3.46-4.84.9.67zm6.59 5.11l-10.6-1.4 2.19-3.06 7.53 1.2.88 3.26zm-4-8.2l-1.81 2-.9-.64 3.64-5.11.9.65-1.48 2.61-.35.49zm5.83 1.69c1.72 1.23 3.47 2.48 5.23 3.66l-2 2.79c-1.66-1.26-3.4-2.5-5.16-3.76l-.73-.52c-1.62-1.15-3.36-2.39-5.12-3.57l2-2.8c1.65 1.26 3.4 2.51 5.16 3.76l.62.44zm-3.13-.1l3.05 11.1-.89 1.25-3.38-13.22 1.22.87zm3.62 8.5l.9.65-2.77 3.88-.9-.65 1.13-2.12.33-.5 1.31-1.26zm4.72-6.62l.9.64-3.77 5.28-.9-.64 1.43-2.54.36-.49 1.98-2.25zm-23.7 10.27c-1.45 1.14-1.56 2.8.36 5.24l4.75 6.06-1.06.83-4.75-6.06c-2.7-3.44-2.24-6.14.44-8.24 2.39-1.88 5.06-2.06 7.53 1.08l1.38 1.76c1.25 1.6 2.54 3.24 3.86 4.82l-2.82 2.21c-1.2-1.63-2.48-3.26-3.76-4.89l-1-1.25c-1.93-2.48-3.39-2.76-4.93-1.56zm4.06 10.48l1.84-1.21.68.87-3.87 3-.68-.87 1.55-1.46.48-.33zm8.92-6.76l.68.87-5.25 4.14-.68-.87 2.21-2.13.47-.36 2.57-1.65zm-24.89 4.43c.43 1 1.11 1.24 2.47 1.26h1c2.66.06 4.43.63 5.33 2.72 1 2.28-.27 4.44-3.13 5.67a7.28 7.28 0 01-4 .58l-1-2.72 1.73-.74 1.69 2.65-1.76.12-.4-.95a4.73 4.73 0 003.17 0 2 2 0 001.22-2.55c-.43-1-1.26-1.27-2.59-1.29h-1.07c-2.88 0-4.32-.66-5.14-2.58-1-2.23.07-4.54 3.3-5.93a9.06 9.06 0 014.53-.78l1.1 2.86-1.77.76-1.8-2.85 1.66-.17.39.91a6.66 6.66 0 00-3.62.39 2 2 0 00-1.31 2.64zm-28.13 6.89a2.71 2.71 0 11-2.11-3.23 2.63 2.63 0 012.11 3.23z" fill="#0A4D57"/></g></svg>