<svg width="149" height="149" xmlns="http://www.w3.org/2000/svg"><g fill="none"><path d="M74.402 0C44.312-.004 17.183 18.119 5.667 45.918-5.85 73.716.514 105.715 21.79 126.992c21.276 21.276 53.275 27.64 81.074 16.123 27.798-11.516 45.921-38.645 45.917-68.735 0-41.079-33.3-74.38-74.38-74.38zm0 115.32c-22.61 0-40.94-18.33-40.94-40.94s18.33-40.94 40.94-40.94 40.94 18.33 40.94 40.94-18.33 40.94-40.94 40.94z" fill="#FBE2D6"/><path d="M19.162 107.19l.14-1.88 3.68 5.54-1 .64-4.06-6.11 2.88-2.08.95 1.43-2.59 2.46zm9.12 2.22c-1.77 1.17-3.55 2.35-5.28 3.57l-2-3c1.76-1.1 3.55-2.28 5.35-3.48l.57-.37c1.83-1.22 3.62-2.4 5.35-3.63l2 3c-1.77 1.1-3.55 2.28-5.35 3.47l-.64.44zm-3.52 4.23l-.92.61-1.83-2.76 1.18-.78.17.27 1.4 2.66zm.3-8.93l-1.82.83-.66-1 3.87-2.57.66 1-1.56 1.4-.49.34zm.37-1l2.54 3.83-1 .67-2.54-3.83 1-.67zm6.33.57l-1.39-2.66.92-.61 3.82 5.77-.92.61-1.91-2.32-.52-.79zm-14.67-3.39l-1 .41-2.46-6.16 1-.41 1.42 2.71.22.56.82 2.89zm4.32-3.42c-2 .78-4 1.58-5.91 2.42l-1.32-3.32c1.95-.72 3.94-1.51 5.94-2.31l.7-.28c2-.79 4-1.58 5.91-2.43l1.33 3.33c-1.95.71-3.94 1.5-5.95 2.3l-.7.29zm4.57-4l-.84-3 1-.41 2.47 6.17-1 .41-1.4-2.66-.23-.51zm-12.87-3.58l-1.4-1.28 3.87-.09.28 1.69-3.79.56-2-11.93 3.77-.69.28 1.68-3.69 1.16.91-1.64 1.77 10.54zm4.55-4.42c-2.09.35-4.2.7-6.28 1.11l-.59-3.54c2.06-.28 4.17-.63 6.31-1l.74-.12c2.1-.35 4.21-.7 6.3-1.11l.58 3.53c-2.06.28-4.17.63-6.3 1l-.76.13zm5.3-3.06l-.2-3.12 1.09-.18 1.16 7-1.09.18-.81-3-.15-.88zm-5.93-16.86a5.13 5.13 0 01-3.43.5c-2-.44-2.86-2.22-2.35-4.5.51-2.28 1.82-3.25 3.39-2.9 1.41.32 2.14 1.54 2.57 4l-.55.42a4.81 4.81 0 00-2.74-2.28 1.35 1.35 0 00-1.79 1 1.42 1.42 0 001.22 1.69 3.5 3.5 0 002.16-.26 37.79 37.79 0 003.66-2c2.43-1.39 3.49-2.07 5.74-3.38l-1.05 1.3 1.29-2.81 1.37.49a8 8 0 01-.16 2 4.16 4.16 0 01-1.71 2.71 30.67 30.67 0 01-3.85 2.15c-2.07 1.02-3.03 1.49-3.77 1.87zm1.6-8.16l-.78 1.92-.91-.2 1-4.43.91.2-.13 2.08-.09.43zm1.36 9.06a2.69 2.69 0 003.32-2.14 3.19 3.19 0 00-.45-2.66l.69-.43a4.93 4.93 0 011.14 4.84c-.61 2.69-2.55 3.74-4.45 3.31-1.71-.38-2.83-1.76-3.21-4.72l.54-.21a3.36 3.36 0 002.42 2.01zm-2.07-8.85l.35-1.56a15 15 0 014.73 4l-.66.57a11.63 11.63 0 00-4.42-3.01zm17.6-17.35a8.87 8.87 0 01-1.7 4.5c-2.44 3.47-6.29 4.29-10 1.7s-4.27-6.31-1.58-10.13a8.82 8.82 0 013.07-2.72l2.67 1.78-.92 1.31-3.09-1.29 1.06-1 .89.62a4.41 4.41 0 00-2.5 1.65c-1.28 1.82-.85 4.44 2.5 6.8 3.35 2.36 6 2 7.27.11a4.57 4.57 0 00.75-2.33l.18 2-1.28-.9c-1.36-1-2.65-1.84-4.05-2.78l2-2.78c1.33 1 2.65 1.94 4 2.92l.73.54zm-6.85 1.5l-.91-.64 3.61-5.13.91.63-1.12 2.18-.78 1.11-1.71 1.85zm1.11-12.24l-.71-.85 2.54-2.12.91 1.08-.25.21-2.49 1.68zm4.6 3c-1.36-1.63-2.73-3.27-4.14-4.85l2.74-2.3c1.29 1.63 2.67 3.28 4.05 4.94l.44.51c1.41 1.7 2.78 3.34 4.19 4.92l-2.74 2.3c-1.29-1.63-2.66-3.28-4.05-4.93l-.49-.59zm1.08-9.22l1.89-.07-5 4.18-.75-.89 5.53-4.62 2.38 2.63-1.32 1.1-2.73-2.33zm4.22 5.79l-3.48 2.91-.78-.93 3.48-2.91.78.93zm-.3 6.72l.91 1.08-2.54 2.13-.71-.85 2.09-2.15.25-.21zm-.74-7l-1-1.71.92-.77 2.84 3.4-.91.77-1.57-1.4-.28-.29zm5.32.36l2.17 2.81-5.84 4.88-.74-.88 5.31-4.44-.4 1.84-1.81-3.11 1.31-1.1zm8.52-3.51c-.48-1-1.18-1.19-2.53-1.13h-1c-2.67.08-4.46-.41-5.46-2.46-1.09-2.22.05-4.44 2.85-5.81a7.22 7.22 0 014-.77l1.12 2.66-1.7.83-1.84-2.55 1.75-.2.46.92a4.79 4.79 0 00-3.18.2 1.94 1.94 0 00-1.08 2.61c.48 1 1.31 1.21 2.65 1.16h1.06c2.88-.09 4.35.46 5.27 2.33 1.07 2.18.15 4.54-3 6.09a9 9 0 01-4.48 1l-1.24-2.8 1.72-.85 1.95 2.76-1.65.25-.43-.89a6.53 6.53 0 003.59-.57 2 2 0 001.17-2.78zm2.58-11.64l-.22-1.08 6.57-1.34.22 1.08-2.93.92-.58.12-3.06.3zm9.93 9.14c1.81-.37 2.65-1.8 2-4.85l-1.51-7.51 1.32-.26 1.53 7.54c.88 4.28-.74 6.49-4.08 7.16-3 .61-5.44-.42-6.24-4.33l-.45-2.2c-.4-2-.82-4-1.29-6l3.51-.72c.34 2 .76 4 1.17 6.07l.32 1.55c.65 3.03 1.81 3.93 3.72 3.55zm1.07-11.18l-2.18.25-.23-1.09 4.82-1 .22 1.09-2 .61-.63.14zm6.38 10.28l2.21-.1.58.06 2.61.56-.1 1.1-5.41-.52.11-1.1zm2.19-11.54l1.13.7-2.21-.41.11-1.11 4.63.45 6.37 10.8-.33 3.41-1.73-.17-7.97-13.67zm.74-.65l1.22 1.24-1.2 12.35-1.32-.13 1.3-13.46zm6.6.63l5.41.53-.11 1.1-2.11.1-.57-.05-2.67-.58.05-1.1zm2.35.23l1.32.13-1.31 13.5-1.19-1.45 1.18-12.18zm6.71 14.09l-.53 1.31-3.07-1.26.42-1 2.88.85.3.1zm.58-6c.8-2 1.61-3.94 2.36-5.93l3.31 1.36c-.84 1.9-1.65 3.88-2.47 5.88l-.26.63c-.84 2-1.65 4-2.4 6l-3.31-1.36c.84-1.9 1.66-3.88 2.5-6l.27-.58zm-.66 6.17l2.26.93c2.18.89 4.3-.42 5.65-3.72 1.35-3.3.76-5.71-1.38-6.59l-2.3-.94.45-1.1 2.59 1.06c4.06 1.67 5.54 5 4 8.89-1.54 3.89-5.26 5.2-9.43 3.49l-2.25-.92.41-1.1zm1.19-11.65l.42-1 3.07 1.26-.54 1.31-.3-.13-2.65-1.44zm16.32 14.8a2.71 2.71 0 11.37 3.84 2.64 2.64 0 01-.37-3.84zm7.65 14.98l1.47 2.61-.9.64-4-5.65.9-.64 2 2.26.53.78zm3.33-5.23c1.73-1.22 3.48-2.45 5.18-3.72l2.06 2.92c-1.73 1.15-3.48 2.38-5.25 3.63l-.55.39c-1.81 1.27-3.56 2.5-5.25 3.78l-2.07-2.93c1.74-1.15 3.49-2.38 5.25-3.63l.63-.44zm3 5.61l-2.65-3.75 1-.7 2.64 3.76-.99.69zm.34-1l1.79-.88.69 1-3.79 2.68-.69-1 1.52-1.45.48-.35zm.05-8.93l.9-.64 1.91 2.71-1.16.81-.19-.26-1.46-2.62zm5.78 6.28l-.09 1.89-3.83-5.43 1-.67 4.23 6-2.82 2.16-1-1.4 2.51-2.55zm-6.41 13.91l.93 2.92-1 .44-2.63-6.09 1-.44 1.47 2.62.23.55zm4.47-4.12c1.94-.84 3.91-1.69 5.83-2.59l1.42 3.29c-1.93.77-3.9 1.62-5.88 2.48l-.69.3c-2 .84-3.92 1.69-5.85 2.59l-1.42-3.29c1.94-.77 3.9-1.61 5.89-2.47l.7-.31zm4.25-3.54l1-.44 2.63 6.09-1 .44-1.5-2.67-.24-.56-.89-2.86zm-5.4 18.63l.29 3.11-1.08.21-1.35-6.92 1.08-.21.89 2.93.17.88zm5.21-3.21c2.08-.41 4.18-.82 6.25-1.29l.69 3.52c-2.06.34-4.16.75-6.28 1.16l-.73.14c-2.1.41-4.2.82-6.27 1.29l-.68-3.52c2-.33 4.15-.74 6.27-1.16l.75-.14zm4.43-4.55l1.43 1.24-3.87.2-.32-1.68 3.77-.66 2.31 11.86-3.74.79-.33-1.67 3.65-1.26-.85 1.67-2.05-10.49zm-3.24 24.42a5.14 5.14 0 013.42-.59c2 .38 2.92 2.13 2.47 4.43-.45 2.3-1.72 3.3-3.3 3-1.42-.28-2.19-1.48-2.68-3.94l.53-.43a4.78 4.78 0 002.86 2.22 1.34 1.34 0 001.76-1 1.43 1.43 0 00-1.27-1.67 3.5 3.5 0 00-2.15.33 37.32 37.32 0 00-3.61 2.09c-2.39 1.47-3.43 2.17-5.64 3.55l1-1.33-1.21 2.85-1.39-.45a8.13 8.13 0 01.1-2 4.18 4.18 0 011.64-2.76 31.67 31.67 0 013.79-2.26c2.02-1.14 2.97-1.63 3.68-2.04zm-3-.81a2.7 2.7 0 00-3.26 2.24 3.21 3.21 0 00.53 2.64l-.68.45a4.91 4.91 0 01-1.27-4.8c.52-2.71 2.44-3.82 4.35-3.44 1.72.33 2.88 1.67 3.34 4.63l-.53.22a3.38 3.38 0 00-2.48-1.92v-.02zm2.33 8.79l-.31 1.57a14.85 14.85 0 01-4.84-3.85l.64-.59a11.65 11.65 0 004.54 2.87h-.03zm-.7.23l.72-1.94.91.17-.87 4.47-.91-.18.06-2.09.09-.43zm-16.38 17.63a8.9 8.9 0 011.57-4.55c2.34-3.54 6.17-4.47 9.92-2 3.75 2.47 4.45 6.18 1.87 10.07a8.74 8.74 0 01-3 2.81l-2.72-1.7.88-1.34 3.13 1.21-1 1-.91-.6a4.34 4.34 0 002.45-1.7c1.23-1.86.73-4.47-2.69-6.73-3.42-2.26-6-1.8-7.27.09a4.37 4.37 0 00-.68 2.35l-.24-2 1.3.86c1.39.92 2.71 1.77 4.13 2.66l-1.87 2.84c-1.36-.95-2.71-1.86-4.13-2.8l-.74-.47zm6.81-1.69l.92.6-3.46 5.24-.92-.61 1.06-2.19.74-1.13 1.66-1.91zm-14.94 12.95l-2.24-2.75 5.7-5 .76.87-5.18 4.58.35-1.84 1.9 3.06-1.29 1.08zm9.49-3.59c1.41 1.59 2.83 3.19 4.28 4.74l-2.68 2.37c-1.33-1.6-2.75-3.2-4.19-4.82l-.45-.51c-1.46-1.65-2.88-3.25-4.33-4.8l2.68-2.37c1.33 1.6 2.75 3.2 4.19 4.82l.5.57zm-4.16 3.8l1.08 1.69-.89.79-2.94-3.32.89-.8 1.61 1.35.25.29zm-.93-7l-.94-1.06 2.48-2.19.73.83-2 2.21-.27.21zm-.11 6.73l3.4-3 .8.91-3.4 3-.8-.91zm4.38 5.67l-1.89.12 4.88-4.32.77.87-5.39 4.83-2.46-2.56 1.3-1.14 2.79 2.2zm5.51-6.35l.73.83-2.48 2.19-.94-1.05.24-.22 2.45-1.75zm-22.59 4.56c.5 1 1.2 1.15 2.56 1.06h1c2.66-.15 4.46.28 5.52 2.3 1.15 2.19.08 4.44-2.68 5.9a7.34 7.34 0 01-3.93.88l-1.18-2.68 1.67-.88 1.89 2.52-1.74.25-.48-.92a4.78 4.78 0 003.17-.28 2 2 0 001-2.65c-.5-1-1.34-1.16-2.68-1.08l-1.06.06c-2.88.18-4.36-.32-5.33-2.17-1.13-2.15-.28-4.54 2.83-6.17a9.07 9.07 0 014.46-1.13l1.31 2.77-1.7.89-2-2.7 1.64-.3.46.88a6.56 6.56 0 00-3.58.67 2 2 0 00-1.15 2.78zm-12.44 2.86c-1.8.42-2.6 1.87-1.89 4.89l1.75 7.5-1.31.3-1.75-7.49c-1-4.26.56-6.51 3.88-7.28 3-.7 5.45.27 6.36 4.15l.51 2.18c.46 2 .93 4 1.46 6l-3.48.81c-.4-2-.88-4-1.35-6l-.36-1.54c-.71-3.09-1.92-3.97-3.82-3.52zm-.75 11.2l2.17-.31.25 1.07-4.78 1.12-.25-1.08 2-.66.61-.14zm10.94-2.36l.25 1.08-6.54 1.51-.25-1.07 2.91-1 .58-.13 3.05-.39zm-26.78 4.09l-5.42-.36.07-1.1 2.11-.17h.57l2.74.49-.07 1.14zm-2.35-.15l-1.33-.09.91-13.54 1.24 1.41-.82 12.22zm9.69-.08l-1.15-.67 2.22.34-.08 1.12-4.64-.31-6.69-10.61.23-3.42 1.74.11 8.37 13.44zm1.85-11.6l-2.21.16h-.59l-2.62-.49.08-1.1 5.41.36-.07 1.07zm-2.58 12.33l-1.24-1.21.82-12.38 1.33.09-.91 13.5zm-16.01-14.77l-2.29-.87c-2.21-.83-4.29.55-5.55 3.89-1.26 3.34-.59 5.73 1.58 6.55l2.32.87-.42 1.11-2.62-1c-4.11-1.55-5.68-4.88-4.21-8.77 1.47-3.89 5.11-5.35 9.32-3.76l2.29.86-.42 1.12zm-.49 6.19c-.74 2-1.5 4-2.19 6l-3.35-1.26c.79-1.93 1.54-3.93 2.31-5.95l.24-.64c.78-2.06 1.53-4.07 2.22-6.07l3.35 1.26c-.79 1.93-1.54 3.93-2.33 6l-.25.66zm-.37 5.5l-.39 1-3.11-1.17.5-1.32.31.11 2.69 1.38zm.78-11.48l.5-1.32 3.1 1.17-.39 1-2.91-.76-.3-.09zm-17.52-2.82a2.71 2.71 0 11-.47-3.83 2.64 2.64 0 01.47 3.83z" fill="#C82974"/></g></svg>