<svg width="149" height="149" xmlns="http://www.w3.org/2000/svg"><g fill="none"><path d="M74.38 0C33.306 0 .007 33.293 0 74.367c-.007 41.073 33.28 74.378 74.353 74.393 41.074.015 74.385-33.266 74.407-74.34A74.38 74.38 0 0074.38 0zm0 115.32a40.94 40.94 0 1140.93-40.9c-.022 22.591-18.339 40.894-40.93 40.9z" fill="#0A4D57"/><path d="M24.73 113.64l-.92.61-3.75-5.66.92-.61 1.97 2.37.42.63 1.36 2.66zm-1.78-.66l-2-3c1.78-1.11 3.56-2.29 5.36-3.48l.9-.6c1.51-1 3.29-2.18 5-3.4l2 3c-1.78 1.1-3.57 2.29-5 3.23l-1 .66c-1.73 1.19-3.52 2.38-5.26 3.59zm2.75-13l3.48-2.06 4.06 6.12-1 .66-3.68-5.55 1.84.65-3.81 1.55-.89-1.37zm6.36 4.85l1.18-.79 1.83 2.77-.92.61-1.91-2.32-.18-.27zm-14.99-3.94l-1 .41-2.46-6.16 1-.41 1.41 2.69.23.56.82 2.91zm4.31-3.47c-2 .79-4 1.58-5.9 2.43l-1.33-3.33c1.95-.71 3.94-1.5 5.95-2.3l.69-.28c2-.79 4-1.59 5.92-2.43l1.33 3.32c-2 .72-3.94 1.51-6 2.31l-.66.28zm4.58-4l-.85-2.95 1-.41 2.46 6.17-1 .41-1.39-2.66-.22-.56zM10.63 82.33l.89-1.67 1.15 6.54-1.15.2-1.27-7.22 3.47-.76.3 1.69-3.39 1.22zM18.11 88c-2.09.36-4.2.73-6.28 1.16l-.62-3.52c2.06-.3 4.17-.67 6.3-1.05l.66-.12c2.17-.38 4.28-.75 6.36-1.17l.62 3.52c-2.06.3-4.17.67-6.29 1l-.75.18zm-4.93 2.47l-1.08.19-.58-3.24 1.39-.24.06.31.21 2.98zm3.85-8.05h-2l-.2-1.17 4.56-.81.21 1.18-2 .66-.57.14zm.74-.77l.79 4.52-1.19.21-.8-4.52 1.2-.21zm5.57 3l-.21-3 1.09-.19 1.19 6.82-1.08.19-.83-2.89-.16-.93zm-12.26-9.32l-1.13-.08.24-3.3 1.41.1v.32l-.52 2.96zm5.37-1.2c-2.11-.15-4.25-.31-6.37-.4l.26-3.57c2.07.21 4.2.36 6.36.52l.68.05c2.2.15 4.33.31 6.45.4l-.25 3.57c-2.07-.21-4.21-.36-6.37-.52l-.76-.05zm-5.88-7.19l1.27-1.41-.47 6.5-1.16-.08.51-7.19 3.55.11-.12 1.71-3.58.36zm6.2 1.56l-2-.45.08-1.19 4.43.32-.04 1.24-2.09.16-.38-.08zm.9-.57l-.32 4.49h-1.22l.33-4.52 1.21.03zm3.05-3l3.53.4-.54 7.59-1.15-.08.5-6.9 1 1.57-3.5-.87.16-1.71zm1.58 7.89l1.41.1-.24 3.31-1.1-.08-.1-3 .03-.33zm1.77-16.52c-1-.34-1.67 0-2.58 1l-.64.7c-1.8 2-3.39 2.93-5.56 2.23-2.35-.76-3.17-3.12-2.21-6.09a7.2 7.2 0 012.19-3.38l2.69 1-.58 1.8-3.11-.48 1.07-1.39 1 .31a4.82 4.82 0 00-2.06 2.42 2 2 0 001.13 2.6c1 .33 1.78-.12 2.67-1.11l.72-.78c1.93-2.14 3.35-2.82 5.33-2.18 2.31.75 3.38 3 2.3 6.39a9.12 9.12 0 01-2.4 3.93l-2.88-1.06.59-1.83 3.34.52-1 1.36-.94-.31a6.63 6.63 0 002.09-3 2 2 0 00-1.16-2.65zm-6.18-10.31l-.21-1.87 3 2.46-.9 1.46-3.22-2.07 6.33-10.3 3.29 1.95-.89 1.45-3.55-1.54 1.77-.65-5.62 9.11zm6.35-.35c-1.81-1.11-3.64-2.23-5.48-3.29l1.88-3.05c1.74 1.14 3.56 2.26 5.4 3.39l.64.4c1.82 1.11 3.65 2.23 5.49 3.29l-1.88 3.04c-1.74-1.14-3.56-2.26-5.41-3.39l-.64-.39zm6 1.16l1.89-2.49.94.58-3.69 6-.94-.58 1.33-2.76.47-.75zM26.5 32.9l-.76-.81 4.82-4.56.76.8-1.69 2-.65.62-2.48 1.95zm9.13 2.36l-9.49-3.55 2.87-2.72 7.26 3-.41.5-2.55-7.56 1-1 3 9.7-1.68 1.63zm-1.43-9.23l-1.62 1.11-.76-.8 3.13-2.92.76.8-1.12 1.49-.39.32zm-.25 8.11l2.51-2.38c2.14 2.26 3.08 3.26 4.43 4.59l-2.6 2.46c-1.2-1.39-2.15-2.39-4.34-4.67zm5 2.12l2.46-1.91.76.8L37.05 40l-.76-.81 2-2.31.66-.62zm.29-14.49l-.53-1 5.94-3.27.54 1-2.52 1.74-.66.36-2.77 1.17zm.8-1.7l3.14-1.73c1 1.86 2 3.74 3 5.62l.53.95c.87 1.58 1.9 3.46 3 5.28l-3.13 1.73c-1-1.87-2-3.74-2.82-5.25l-.58-1a163.97 163.97 0 00-3.14-5.6zm7.41 9.74l.68 1.24-2.9 1.6-.53-1 2.47-1.71.28-.13zm5.36-5.94l1.76 3.63-6.44 3.55-.56-1 5.83-3.21-.8 1.78-1.24-3.92 1.45-.83zm.07-8.97l-.28-1.07 3.2-.86.36 1.37-.31.08-2.97.48zm2.89 4.69c-.54-2.05-1.09-4.12-1.7-6.15l3.46-.93c.47 2 1 4.1 1.58 6.19l.18.65c.56 2.13 1.12 4.2 1.72 6.23l-3.46.92c-.47-2-1-4.09-1.58-6.18l-.2-.73zm3.18 5.08l.36 1.37-3.2.85-.28-1.06 2.8-1.07.32-.09zm1.73-13l1.74.74-6.29 1.68-.3-1.13 7-1.85 1 3.39-1.66.44-1.49-3.27zm1.37 7l-4.38 1.16-.31-1.17 4.38-1.17.31 1.18zm3.84 1.9l.78 3.46-7.36 2-.36-1.1 6.68-1.78-1.14 1.49-.33-3.58 1.73-.49zM61.22 18l-.21-2 1.15-.31 1.15 4.29-1.16.3-.86-1.86-.07-.42zm30.57 1.8a2.71 2.71 0 111.58 3.52 2.64 2.64 0 01-1.58-3.52zm24.38 23.62l-1.17.8-1.87-2.8.92-.62 1.9 2.32.22.3zm9-8.31l2 3c-1.76 1.12-3.53 2.33-5.31 3.54l-.89.62c-1.49 1-3.26 2.22-5 3.46l-2-2.95c1.76-1.13 3.53-2.34 5-3.31l1-.67c1.71-1.27 3.48-2.48 5.19-3.72l.01.03zm-2.57 13.07l-3.44 2.1-4.15-6.06 1-.67 3.76 5.5-1.85-.63 3.78-1.6.9 1.36zm.8-13.7l.91-.63 3.83 5.61-.91.62-2-2.34-.42-.62-1.41-2.64zm-.93 20.17l.88 2.94-1 .42-2.54-6.13 1-.43 1.43 2.65.23.55zm4.52-4.05c2-.81 3.94-1.63 5.88-2.5l1.37 3.31c-1.95.74-3.92 1.56-5.92 2.39l-.69.28c-2 .82-4 1.64-5.89 2.51l-1.37-3.31c2-.74 3.92-1.56 5.92-2.38l.7-.3zm4.27-3.48l1-.43 2.55 6.14-1 .42-1.46-2.7-.23-.55-.86-2.88zm-6.06 16.3l.25 3-1.09.21-1.29-6.8 1.08-.21.87 2.88.18.92zm5.19-3.38c2.08-.4 4.18-.8 6.26-1.26l.67 3.52c-2.06.33-4.16.73-6.29 1.13l-.66.13c-2.17.41-4.27.81-6.35 1.27l-.67-3.52c2.06-.32 4.16-.72 6.29-1.13l.75-.14zm1.15 5.58l2-.07.22 1.17-4.56.87-.25-1.17 2-.69.59-.11zm-.73.77l-.86-4.51 1.2-.23.86 4.52-1.2.22zm7.14-.79l-.87 1.69-1.24-6.53 1.14-.22 1.37 7.21-3.45.8-.33-1.68 3.38-1.27zm-2.68-8.18l1.09-.2.62 3.25-1.39.26-.06-.31-.26-3zm-7.18 25.68l-3.53-.35.43-7.6 1.15.07-.4 6.91-1.06-1.56 3.51.81-.1 1.72zm4.13-9.26c2.12.12 4.26.24 6.38.3l-.21 3.57c-2.07-.18-4.21-.3-6.36-.42h-.68c-2.2-.13-4.34-.25-6.46-.31l.21-3.58c2.07.18 4.21.31 6.36.43l.76.01zm-5.81 1.39l-1.42-.08.19-3.31 1.11.07.13 3-.01.32zm5.54 4.19l2 .43-.06 1.19-4.43-.26.07-1.19 2.09-.19.33.02zm-.89.58l.26-4.52 1.21.07-.26 4.52-1.21-.07zm7.11.9l-1.22 1.46.38-6.5 1.16.07-.42 7.19-3.55-.06.1-1.72 3.55-.44zm-.63-8.38l1.11.06-.19 3.31-1.42-.08v-.33l.5-2.96zm-12.67 19.24c1 .32 1.67-.05 2.56-1.07l.64-.72c1.77-2 3.35-3 5.52-2.3 2.37.72 3.22 3.07 2.3 6.06a7.33 7.33 0 01-2.14 3.41l-2.71-1 .55-1.8 3.12.43-1 1.41-1-.3a4.88 4.88 0 002-2.45 2 2 0 00-1.17-2.58c-1-.32-1.78.14-2.66 1.14l-.7.8c-1.91 2.16-3.31 2.86-5.3 2.25-2.32-.71-3.42-3-2.39-6.36a8.91 8.91 0 012.34-4l2.89 1-.56 1.84-3.35-.47.95-1.37.94.29a6.64 6.64 0 00-2 3 2 2 0 001.17 2.79zm-6.05 9.66l-1.87 2.46-1-.57 3.6-6.06 1 .57-1.29 2.77-.44.83zm6 1.07c1.82 1.08 3.66 2.18 5.51 3.21l-1.83 3.08c-1.75-1.12-3.59-2.21-5.45-3.32l-.64-.38c-1.84-1.09-3.68-2.18-5.53-3.21l1.83-3.08c1.75 1.11 3.59 2.21 5.45 3.31l.66.39zm6.33-.44l.24 1.88-3-2.43.88-1.47 3.25 2-6.16 10.39-3.32-1.9.87-1.47 3.56 1.49-1.75.68 5.43-9.17zm-20.9 9.99l-2.44 2-.78-.79 5.06-4.92.77.79-2 2.35-.61.57zm5 2l-2.48 2.41c-2.16-2.22-3.12-3.21-4.49-4.52l2.57-2.5c1.25 1.42 2.21 2.41 4.4 4.66v-.05zm-1.66-1.1l9.54 3.42-2.84 2.76-7.29-2.89.4-.52 2.66 7.54-1 1-3.11-9.64 1.64-1.67zm1.55 9.22l1.61-1.14.77.8-3 3-.77-.8 1.1-1.5.29-.36zm7.61-7l.78.79-4.76 4.64-.78-.8 1.67-2 .64-.63 2.45-2zm-26.16 9.45L94.77 121l6.39-3.64.58 1-5.79 3.3.78-1.8 1.29 3.91-1.43.84zm12.82 3.62L106.3 130c-1-1.85-2-3.7-3.11-5.57l-.54-1c-.89-1.57-1.95-3.43-3-5.23l3.11-1.77c1 1.84 2 3.7 2.89 5.2l.6 1c1 1.94 2.06 3.79 3.16 5.6zm-7.55-9.64l-.7-1.23 2.87-1.64.55 1-2.44 1.7-.28.17zm8.32 7.93l.55.95-5.9 3.37-.55-1 2.5-1.78.65-.37 2.75-1.17zm-26.58 1.52l-.83-3.46 7.33-2.06.31 1.1-6.66 1.88 1.12-1.51.38 3.58-1.65.47zm5.34 8.86l-1.75-.72 6.26-1.76.32 1.12-6.93 2-1.1-3.37 1.65-.47 1.55 3.2zm-.64-6.36l.24 2-1.15.32-1.2-4.27 1.15-.32.86 1.91.1.36zm-.83-.66l4.36-1.23.33 1.17-4.36 1.23-.33-1.17zm6.23-1c.58 2 1.16 4.1 1.79 6.12l-3.44 1c-.51-2-1.09-4.07-1.67-6.16l-.19-.65c-.6-2.12-1.18-4.18-1.81-6.21l3.45-1c.5 2 1.08 4.08 1.67 6.16l.2.74zm-3.21-5l-.39-1.36 3.19-.9.3 1.07-2.79 1.1-.31.09zm6.17 9.7l.3 1.06-3.19.9-.38-1.36.31-.09 2.96-.51zm-39.03-4.37a2.71 2.71 0 11-1.63-3.5 2.63 2.63 0 011.63 3.5z" fill="#ABCD68"/></g></svg>