<svg width="149" height="149" xmlns="http://www.w3.org/2000/svg"><g fill="none"><path d="M74.38 0C33.306 0 .007 33.293 0 74.367c-.007 41.073 33.28 74.378 74.353 74.393 41.074.015 74.385-33.266 74.407-74.34A74.39 74.39 0 0074.38 0zm0 115.32a40.94 40.94 0 1140.94-40.9c-.022 22.595-18.345 40.9-40.94 40.9z" fill="#91116A"/><path d="M26.72 112.55l-.75.52-3.14-4.65.75-.52 1.64 1.93.35.51 1.15 2.21zm-1.46-.51l-1.68-2.44c1.45-.93 2.91-1.94 4.37-2.95l.74-.51c1.23-.84 2.68-1.85 4.09-2.88l1.68 2.44c-1.45.94-2.91 1.94-4.08 2.75l-.81.55c-1.45 1-2.91 2.01-4.31 3.04zm2.07-10.81l2.84-1.75 3.45 5-.8.55-3.12-4.53 1.53.51-3.12 1.35-.78-1.13zm5.33 3.91l1-.66 1.55 2.25-.75.52-1.63-1.89-.17-.22zm-12.42-2.72l-.83.38-2.3-5 .83-.38 1.29 2.18.21.45.8 2.37zm3.41-3c-1.59.73-3.2 1.47-4.77 2.25l-1.24-2.69c1.59-.67 3.19-1.41 4.81-2.15l.56-.26c1.61-.74 3.21-1.48 4.78-2.26L29.03 97c-1.58.67-3.19 1.41-4.81 2.16l-.57.26zm3.6-3.49l-.82-2.39.83-.38 2.29 5-.83.38-1.26-2.13-.21-.48zm-13.24-8.11l.61-1.43L16 91.58l-.93.25-1.52-5.75 2.8-.86.36 1.37-2.7 1.23zm6.52 4c-1.7.45-3.41.9-5.08 1.4l-.76-2.86c1.67-.39 3.38-.84 5.11-1.3l.54-.14c1.76-.46 3.47-.92 5.15-1.41l.75 2.85c-1.67.4-3.38.85-5.11 1.3l-.6.16zm-3.88 2.38l-.88.23-.7-2.64 1.13-.3.07.26.38 2.45zm2.62-6.85l-1.65.17-.25-1 3.54-.93.25 1-1.59.68-.3.08zm.55-.69l1 3.62-1 .26-1-3.62 1-.26zm1.58-3.17l2.86-.63 1.6 6.08-.91.24-1.46-5.53 1.23 1-3 .26-.32-1.42zm3.33 5.74l1.13-.29.7 2.64-.88.23-.88-2.32-.07-.26zm-7.14-10.34l-.08-1.86c-.06-1.44-.78-2.07-2.12-2-1.34.07-1.84.69-1.79 2l.08 2h-1l-.11-2.76c-.12-2.87 1-4 2.46-4.06 1.27 0 2.37.69 2.8 3.43h-.15c.06-3 1.08-4.25 2.73-4.31 1.42-.06 3.17.91 3.34 5.14l.09 2.1h-1l-.08-2c-.06-1.57-.85-2.45-2.28-2.4-1.43.05-2.19.9-2.12 2.59l.08 1.95-.85.18zm.51 1.41c-1.77.07-3.56.14-5.33.26l-.12-2.9c1.74 0 3.53-.1 5.34-.17h.41c1.86-.07 3.64-.14 5.41-.26l.12 2.9c-1.75 0-3.52.09-5.33.16l-.5.01zm-4.37 1.48h-.91l-.11-2.74h1.16v.26l-.14 2.48zm9-3.1l1.17-.05.11 2.74h-.92l-.35-2.45-.01-.24zm-9.12-10.35l-.9-.16.48-2.7 1.15.21-.05.26-.68 2.39zm4.52-.54c-1.72-.3-3.47-.61-5.2-.86l.51-2.91c1.68.35 3.43.65 5.18 1l.56.1c1.79.31 3.53.62 5.27.87l-.52 2.92c-1.68-.35-3.42-.66-5.18-1l-.62-.12zm-4.23-6.4l1.16-1.05-.93 5.3-.94-.17 1-5.85 2.9.38-.24 1.4-2.95-.01zm5 1.81l-1.56-.54.17-1 3.61.64-.17 1-1.74-.05-.31-.05zm.79-.39l-.65 3.69-1-.18.64-3.69 1.01.18zm2.76-2.22l2.87.62-1.09 6.2-.93-.17 1-5.63.72 1.38-2.8-1 .23-1.4zm.63 6.62l1.15.2-.47 2.69-.9-.15.17-2.48.05-.26zm-.25-16.54a4.27 4.27 0 01-2.85-.35c-1.46-.78-1.79-2.4-.88-4.11.91-1.71 2.16-2.19 3.33-1.57 1.17.62 1.37 1.7 1.17 3.76l-.52.22a4 4 0 00-1.73-2.45 1.11 1.11 0 00-1.64.4 1.18 1.18 0 00.6 1.62 2.92 2.92 0 001.78.26 31.31 31.31 0 003.35-.78c2.25-.58 3.24-.89 5.32-1.44l-1.13.81 1.64-2 1 .68a6.72 6.72 0 01-.57 1.59 3.38 3.38 0 01-2 1.78 25.35 25.35 0 01-3.54.88c-1.77.39-2.64.55-3.33.7zM25 52.03a2.22 2.22 0 003.11-1 2.66 2.66 0 00.22-2.21l.64-.2a4 4 0 01-.15 4.1c-1.07 2-2.85 2.43-4.27 1.67-1.42-.76-1.87-2-1.52-4.46h.47a2.76 2.76 0 001.52 2.1H25zm.89-7.51l-1 1.36-.68-.36 1.76-3.32.68.36-.55 1.63-.21.33zm-.61 0l.62-1.17a12.29 12.29 0 012.89 4.21l-.65.31a9.59 9.59 0 00-2.84-3.34l-.02-.01zm3.63-10.89l-.63-.66 2-1.89.81.84-.19.19-1.99 1.52zm4 2.25c-1.21-1.27-2.44-2.55-3.68-3.78l2.13-2c1.15 1.27 2.38 2.55 3.61 3.84l.72.75c1 1 2.15 2.25 3.4 3.48l-2.14 2c-1.15-1.27-2.37-2.55-3.61-3.84l-.43-.45zm3.53-1.13l-1.38 1.31-.65-.68 1.39-1.34c1.08-1 .9-2.3-.18-3.42a2.1 2.1 0 00-3.31-.12l-1.34 1.29-.68-.71 1.37-1.3c2.56-2.46 4.5-2.47 5.9-1 1.4 1.47 1.5 3.42-1.16 5.97h.04zm1.14 3.2l2-1.52.63.66-4.13 3.95-.63-.66 1.61-1.89.52-.54zm9.98-9.23c-.47-.76-1.06-.87-2.18-.71l-.78.1c-2.19.29-3.7 0-4.7-1.55s-.34-3.66 1.85-5a5.87 5.87 0 013.18-1l1.15 2.09-1.33.83-1.71-2 1.42-.31.45.72a3.91 3.91 0 00-2.59.43 1.6 1.6 0 00-.66 2.24c.47.76 1.18.88 2.27.72l.87-.11c2.36-.32 3.61 0 4.53 1.46 1.06 1.7.51 3.72-2 5.26a7.31 7.31 0 01-3.6 1.2l-1.25-2.19 1.34-.84 1.84 2.1-1.34.34-.43-.69a5.51 5.51 0 002.91-.77 1.64 1.64 0 00.76-2.32zm.39-9.41l-.33-.86 5.13-1.94.33.86-1.93 1-.7.26-2.5.68zm6.2 4.71l-6.09-5.73 3-1.16 4.57 4.6-.47.26.47-6.58L56.7 15l-.8 8.34-1.75.68zm-.89-1.38l2.67-1c.91 2.4 1.31 3.46 1.91 4.91l-2.77 1c-.49-1.42-.89-2.48-1.81-4.91zm3.11 3.2l2.49-.67.32.86-5.44 2.06-.33-.86 2.26-1.13.7-.26zm-.36-9.31l-1.59.33-.32-.85 3.29-1.25.32.86-1.33.77-.37.14zm14.14 5.63l.14.87-1.08.43.13-2.73 1.28-.2.35 2.59a7.31 7.31 0 01-3.38 1.42c-3.24.52-6.14-1-6.77-4.88-.63-3.88 1.85-6.28 5-6.79a6.72 6.72 0 013.42.3l.49 2.59-1.28.21-1-2.56 1.16.08.15.92a3.21 3.21 0 00-2.39-.65c-1.79.28-3.13 2-2.58 5.43.55 3.43 2.3 4.61 4.07 4.32a4 4 0 002.29-1.35zm5.35.37l2.45.46-.08.91-5.34-.48.07-.91 2.4-.06.5.08zm-2.13-9.29l.07-.91 5.34.44-.07.91-2.49.05h-.5l-2.35-.49zm.92 4.45c.14-1.75.29-3.51.38-5.26l3 .24c-.2 1.71-.34 3.47-.49 5.25v.52c-.15 1.85-.29 3.61-.39 5.36l-2.94-.24c.19-1.7.33-3.47.48-5.25l-.04-.62zm1.37.77l.08-1 6.46.53-.08 1-6.46-.53zm6.39 4.61l2.41.45-.07.91-5.34-.43.07-.91 2.46-.06.47.04zm-2.17-9.3l.08-.91 5.34.44-.07.91-2.46.06h-.47l-2.42-.5zm.87 4.44c.14-1.74.28-3.5.37-5.25l3 .24c-.19 1.71-.33 3.47-.48 5.25v.63c-.14 1.74-.29 3.5-.38 5.25l-3-.24c.19-1.71.34-3.47.49-5.35v-.53zm16.89 4.77c-1.27 3.71-4.36 4.74-7 3.83-2.64-.91-4.47-3.58-3.19-7.33 1.28-3.75 4.38-4.73 7-3.83 2.62.9 4.47 3.58 3.19 7.33zm-6.7 2.9c1.62.55 2.94-1.21 3.85-3.88.91-2.67 1-4.88-.66-5.43-1.66-.55-2.94 1.23-3.85 3.89-.91 2.66-.95 4.86.66 5.42zm17.27 3.74a2.24 2.24 0 11.29 3.18 2.18 2.18 0 01-.29-3.18zm9.55 16.51l-1 .61-1.41-2.32.78-.47 1.5 2 .13.18zm7.8-6.45l1.53 2.53c-1.51.85-3 1.77-4.54 2.69l-.72.52c-1.28.77-2.79 1.68-4.26 2.63l-1.53-2.53c1.5-.85 3-1.76 4.23-2.5l.84-.51c1.47-.97 2.98-1.88 4.45-2.83zm-2.73 10.67l-2.94 1.58-3.14-5.19.83-.51 2.85 4.71-1.5-.6 3.19-1.16.71 1.17zm1.27-11.27l.79-.47 2.94 4.81-.78.48-1.52-2-.33-.54-1.1-2.28zm-1.48 16.62l.68 2.44-.85.33-2-5.11.86-.33 1.13 2.2.18.47zm3.81-3.28c1.63-.64 3.28-1.28 4.89-2l1.07 2.75c-1.61.58-3.26 1.22-4.92 1.87l-.58.23c-1.64.64-3.29 1.28-4.9 2l-1.08-2.76c1.62-.58 3.27-1.22 4.93-1.87l.59-.22zm3.58-2.8l.85-.34 2 5.11-.85.34-1.18-2.25-.18-.46-.64-2.4zm-5.26 12.8l-1.14.23-.54-2.68.89-.18.74 2.37.05.26zm4.36-2.34c1.71-.35 3.44-.7 5.15-1.1l.59 2.9c-1.69.29-3.43.64-5.18 1l-.55.11c-1.78.36-3.51.71-5.22 1.11l-.58-2.9c1.69-.29 3.42-.64 5.17-1l.62-.12zm-1.36 8.34l-2.89.46-1.25-6.16.93-.19 1.13 5.6-1.17-1 3-.09.25 1.38zm2.35-3.73l1.65-.07.2 1-3.59.72-.2-1 1.63-.59.31-.06zm-.59.65l-.74-3.66 1-.2.74 3.66-1 .2zm5.87-.78l-.7 1.4-1.07-5.27.94-.19 1.19 5.83-2.85.7-.28-1.39 2.77-1.08zM133.12 58l.89-.18.54 2.68-1.14.23-.05-.26-.24-2.47zm-1.84 15.22v1.86a1.84 1.84 0 002 2.15c1.25 0 1.87-.59 1.9-1.92v-2h1l-.05 2.76c0 2.88-1.2 3.94-2.7 3.91-1.27 0-2.33-.83-2.6-3.59h.16c-.24 3-1.33 4.17-3 4.14-1.42 0-3.12-1.1-3-5.34v-2.1h1v2c0 1.58.7 2.5 2.14 2.53 1.44.03 2.24-.76 2.27-2.46v-1.95l.88.01zm-.44-1.43c1.78 0 3.57.07 5.35.05l-.05 2.9c-1.74-.08-3.54-.11-5.35-.15h-.41c-1.86 0-3.64-.07-5.42-.05l.06-2.91c1.74.08 3.52.12 5.33.15l.49.01zm-4.68 1.34h-1.17l.05-2.74h.92l.2 2.47v.27zm9.14-2.57h.91v2.74h-1.17v-.27l.26-2.47zm-9.92 20.64l-2.82-.79 1.45-6.11.92.21-1.32 5.56-.64-1.41 2.74 1.16-.33 1.38zm4.69-6.93c1.71.4 3.43.81 5.14 1.16l-.68 2.88c-1.66-.45-3.38-.86-5.11-1.27l-.55-.13c-1.77-.42-3.49-.82-5.2-1.18l.68-2.87c1.66.44 3.38.85 5.11 1.26l.61.15zm-4.93.29l-1.13-.26.63-2.67.89.21-.32 2.46-.07.26zm3.94 4.25l1.52.62-.23 1-3.56-.84.23-1 1.73.15.31.07zm-.82.34l.87-3.64 1 .23-.86 3.64-1.01-.23zm5.66 1.75l-1.22 1 1.24-5.23.93.22-1.37 5.78-2.88-.56.33-1.38 2.97.17zm.69-6.9l.89.21-.63 2.66-1.13-.27.06-.26.81-2.34zm-10.26 17.12a4.19 4.19 0 012.82.52c1.42.86 1.64 2.49.63 4.14-1.01 1.65-2.28 2.06-3.41 1.37-1.13-.69-1.27-1.77-.95-3.82l.54-.18a4 4 0 001.58 2.55 1.11 1.11 0 001.66-.31 1.18 1.18 0 00-.51-1.65 2.86 2.86 0 00-1.76-.36 28.9 28.9 0 00-3.39.58c-2.27.44-3.28.69-5.39 1.12l1.17-.74-1.75 1.86-.94-.74a6.15 6.15 0 01.66-1.55 3.41 3.41 0 012.06-1.67 25.39 25.39 0 013.58-.66l3.4-.46zm-2.08-1.49a2.23 2.23 0 00-3.17.79 2.66 2.66 0 00-.35 2.2l-.65.16a4.06 4.06 0 01.39-4.09c1.19-1.95 3-2.25 4.36-1.41 1.36.84 1.75 2.12 1.26 4.54h-.48a2.8 2.8 0 00-1.36-2.19zm-.73 7.47l-.68 1.13a12.34 12.34 0 01-2.65-4.37l.67-.27a9.61 9.61 0 002.66 3.51zm-.6 0l1.11-1.3.66.4-2 3.21-.65-.4.65-1.6.23-.31zm-11.99 5.84l-2 1.4-.6-.69 4.36-3.71.59.7-1.76 1.78-.59.52zm4.54 2.34c1.14 1.34 2.29 2.68 3.46 4l-2.25 1.92c-1.08-1.34-2.22-2.69-3.38-4l-.67-.79c-.9-1.06-2-2.37-3.19-3.67l2.25-1.91c1.07 1.34 2.22 2.68 3.38 4l.4.45zm-3.59.92l1.45-1.23.62.72-1.47 1.25c-1.14 1-1 2.25 0 3.44a2.09 2.09 0 003.29.3l1.42-1.2.63.74-1.45 1.2c-2.7 2.29-4.64 2.19-5.95.65-1.31-1.54-1.35-3.48 1.46-5.87zm7.42 1.55l.59.7-2.08 1.77-.75-.89.2-.17 2.04-1.41zm-18.9 3.79c.43.79 1 .94 2.13.84l.79-.05c2.19-.16 3.69.18 4.59 1.83.9 1.65.12 3.67-2.14 4.9a6 6 0 01-3.23.78l-1-2.16 1.37-.74 1.59 2.05-1.43.23-.41-.75a3.9 3.9 0 002.61-.27 1.62 1.62 0 00.8-2.2c-.43-.79-1.13-.94-2.23-.86l-.88.06c-2.37.18-3.6-.21-4.43-1.72-1-1.76-.29-3.74 2.26-5.14a7.46 7.46 0 013.67-1l1.12 2.26-1.39.76-1.71-2.2 1.35-.27.39.72a5.54 5.54 0 00-2.94.6 1.63 1.63 0 00-.88 2.33zm-8.98 2.37l-2.52.55-.28-.87 5.55-1.79.28.87-2.32 1-.71.24zm-.11 9.32l1.61-.25.28.87-3.39 1.07-.28-.87 1.37-.7.41-.12zm3.06-6l-2.72.87c-.78-2.43-1.13-3.51-1.66-5l2.82-.9c.42 1.51.76 2.59 1.56 5.06v-.03zm-.83-1.42l5.8 6-3.1 1-4.34-4.82.49-.23-.8 6.54-1.09.36 1.22-8.29 1.82-.56zm6 5l.28.87-5.26 1.74-.28-.87 2-.91.71-.23 2.55-.6zm-22.09-4.04l-.09-.86 1.11-.37-.3 2.71-1.28.13-.2-2.61a7.36 7.36 0 013.46-1.22c3.26-.33 6.07 1.33 6.47 5.28.4 3.95-2.22 6.15-5.4 6.48a6.67 6.67 0 01-3.39-.5l-.34-2.62 1.29-.13.85 2.61-1.16-.14-.09-.94a3.24 3.24 0 002.35.8c1.81-.18 3.25-1.81 2.89-5.27-.36-3.46-2-4.74-3.8-4.56a4.11 4.11 0 00-2.37 1.21zm-10.23 7.81l-.13.9-5.3-.75.12-.91 2.46.09.47.07 2.38.6zm-.6-4.49c-.24 1.73-.49 3.48-.69 5.23l-2.92-.42c.29-1.69.54-3.44.79-5.21l.09-.63c.24-1.73.49-3.48.69-5.22l2.93.41c-.3 1.7-.55 3.45-.81 5.32l-.08.52zm-1-4.93l-2.38-.59.13-.9 5.31.75-.13.9-2.46-.09-.47-.07zm6.11 5l-.14 1-6.42-.91.14-1 6.42.91zm2 5.35l-.13.9-5.31-.75.13-.91 2.49.1.5.07 2.32.59zm-.66-4.5c-.25 1.73-.49 3.49-.69 5.23l-2.93-.42c.29-1.69.54-3.44.79-5.21l.08-.52c.26-1.84.51-3.59.7-5.33l2.93.42c-.29 1.69-.54 3.44-.79 5.21l-.09.62zm-.92-4.91l-2.42-.6.13-.91 5.31.76-.13.9-2.39-.08-.5-.07zm-22.09-1.75c1.49-3.63 4.63-4.48 7.23-3.42 2.6 1.06 4.26 3.84 2.76 7.51s-4.65 4.48-7.23 3.42c-2.58-1.06-4.26-3.84-2.76-7.51zm6.86-2.5c-1.59-.65-3 1-4.07 3.64-1.07 2.64-1.25 4.82.34 5.47 1.59.65 3-1.06 4.07-3.66 1.07-2.6 1.24-4.81-.34-5.45zm-13.11-1.74a2.24 2.24 0 11-.39-3.17 2.19 2.19 0 01.39 3.17z" fill="#FBE2D6"/></g></svg>