<svg xmlns="http://www.w3.org/2000/svg" width="197" height="197" viewBox="0 0 197 197">
    <g fill="none" fill-rule="evenodd">
        <g>
            <path fill="#08767A" fill-rule="nonzero" d="M98.503 0c-39.836-.005-75.752 23.988-91 60.79C-7.745 97.59.68 139.954 28.845 168.123c28.166 28.17 70.528 36.599 107.332 21.355 36.804-15.243 60.801-51.156 60.801-90.991C196.978 44.099 152.891.007 98.503 0zm0 160.053c-24.908.005-47.367-14.996-56.9-38.007-9.535-23.011-4.267-49.5 13.345-67.113 17.613-17.613 44.102-22.88 67.113-13.346 23.011 9.534 38.012 31.992 38.007 56.9-.006 34-27.566 61.56-61.565 61.566z"/>
            <path fill="#FFCB04" fill-rule="nonzero" d="M31.275 130.602c-1.103.57-1.326 1.376-1.239 2.924v1.09c.149 3.049-.372 5.105-2.689 6.295-2.478 1.239-5.08 0-6.702-3.135-.742-1.377-1.078-2.937-.967-4.497l3.01-1.339.992 1.92-2.9 2.132-.26-1.995 1.041-.533c-.319 1.205-.214 2.482.298 3.618.218.577.666 1.038 1.237 1.272.57.235 1.212.223 1.773-.033 1.103-.57 1.339-1.536 1.24-3.06v-1.239c-.162-3.283.42-4.956 2.477-6.071 2.478-1.24 5.192-.273 7.038 3.308.847 1.566 1.274 3.325 1.239 5.105l-3.184 1.474-1.004-1.945 3.11-2.292.322 1.883-1.003.508c.145-1.405-.109-2.821-.731-4.089-.21-.606-.667-1.094-1.259-1.342-.59-.249-1.26-.233-1.839.041zM26.716 127.01c-2.044.634-4.271.128-5.841-1.326-1.57-1.455-2.244-3.637-1.767-5.723.476-2.086 2.03-3.76 4.076-4.388 2.044-.634 4.271-.129 5.841 1.326 1.57 1.454 2.244 3.636 1.767 5.723-.476 2.086-2.03 3.759-4.076 4.387zm-2.305-7.633c-3.197.979-4.41 2.07-4.014 3.32.396 1.252 1.994 1.475 5.191.484 3.197-.991 4.41-2.057 4.014-3.32-.396-1.265-1.982-1.475-5.19-.484zM21.983 109.973c2.688-.36 3.99-1.846 3.717-3.804-.14-1.035-.747-1.95-1.648-2.478l.607-.904c1.952.62 3.32 2.379 3.444 4.423.29 1.58-.112 3.21-1.105 4.474-.993 1.263-2.482 2.04-4.086 2.13-1.657.266-3.348-.182-4.656-1.233-1.308-1.05-2.11-2.606-2.208-4.28-.474-2.094.756-4.196 2.812-4.808.772.03 1.394.642 1.438 1.413.111.916-.347 1.747-1.983 2.081l-1.635.434.743-1.822c-.24.683-.321 1.412-.235 2.132.21 1.35 1.635 2.651 4.795 2.242zM11.872 100.433c-.816.056-1.585-.393-1.937-1.132-.352-.74-.217-1.619.342-2.218.558-.6 1.425-.796 2.188-.497.762.299 1.264 1.033 1.266 1.852.027.513-.156 1.016-.506 1.392-.35.376-.839.593-1.353.603zm15.352-.136c-1.066 0-3.494-.062-4.956-.062H21.14c-1.239 0-2.02 0-2.961.074l-.21 1.45h-.93l-1.573-4.956.247-.41 3.42.063h3.122c1.462 0 3.878 0 4.956-.087l.013 3.928zm-1.116-5.018h1.103v6.195h-1.103l-.47-2.181v-1.722l.47-2.292zM26.01 88.03l-5.836-.768c-2.07-.272-2.738 0-2.937 1.537-.102.74-.102 1.49 0 2.23l-.694-1.735 1.599.384c1.536.26 2.069 1.103 1.945 1.995-.018.76-.616 1.38-1.375 1.425-1.92-.384-2.986-2.478-2.553-5.799.397-2.985 1.822-4.001 4.956-3.593l5.241.682c.459 0 .707-.1.756-.434.05-.334-.074-.446-.421-.78l.495-.558c1.11.575 1.682 1.834 1.388 3.048-.06 1.36-1.205 2.415-2.565 2.367zm-4.82 1.165c-.161-1.003-.372-2.713-.496-3.853l.979.136c.1 1.065.278 2.12.533 3.16.174 1.073 1.029 1.907 2.106 2.056 1.165.161 1.784-.384 1.896-1.177.006-.596-.181-1.179-.533-1.66l-.582-1.028.371-.199.942 1.128c1.04 1.239 1.672 2.106 1.45 3.804-.035.829-.43 1.602-1.084 2.114-.653.513-1.498.713-2.311.55-1.66-.224-2.701-1.29-3.271-5.08v.05zM13.62 73.733l.322-.31 3.159.954 8.301 2.255c1.586.438 3.184.85 4.795 1.239l-1.028 3.717c-1.574-.471-3.16-.93-4.746-1.35l-9.515-2.59-.62 1.35-.954-.26.285-5.005zm15.859 2.614l1.053.285-1.685 6.195-1.053-.298.136-2.292.47-1.722 1.079-2.168zM18.365 63.721l1.672-2.911 1.425.78-.198.335-1.809 2.478-1.09-.682zm1.028-1.784l.67-1.164 7.16 3.915 6.344 3.655-.768 1.313-13.406-7.719zm.074-.124l1.995-3.469 12.056 2.045-.397.681-7.93-9.193.769-1.338 10.692 12.39-.904 1.573-16.28-2.689zm13.37-5.848l-7.435-4.398 1.958-3.407c2.057 1.239 4.188 2.478 6.294 3.717l.756.433c2.13 1.24 4.25 2.478 6.368 3.581l-2.081 3.519c-2.057-1.24-4.188-2.478-5.86-3.445zm-6.53-6.021l1.846-3.21 1.103.633-1.363 3.06-.186.322-1.4-.805zm4.262 21.063l1.065-2.553.335-.582 1.474-1.846 1.09.632-2.861 4.956-1.103-.607zm6.195-10.73l1.239-2.788.545-.941 2.007-2.788 1.103.632-3.717 6.517-1.177-.632zM44.297 41.977c.325.28.612.6.855.954l-6.195 6.827-.917-.83 2.961-3.271c.756-.843.632-1.338-.136-2.044-1.152-1.041-2.218-1.004-2.788-.372-.57.632-.47 2.106 2.057 4.386 2.131 1.933 4.051 1.735 5.228.434.732-.804 1.088-1.88.98-2.962L47.443 45c.718 1.921.231 4.085-1.239 5.514-1.018 1.256-2.53 2.01-4.145 2.067-1.616.057-3.177-.589-4.28-1.77-1.235-1.053-1.98-2.569-2.06-4.19-.08-1.62.513-3.202 1.639-4.371.84-1.03 2.08-1.648 3.407-1.7 1.327-.052 2.613.467 3.53 1.427zM53.8 40.726c.829-.85 1.161-2.068.88-3.222l.446.137c.632 2.7.198 4.472-1.45 5.761-2.106 1.635-4.956 1.239-7.36-1.797-2.403-3.035-1.784-6.405.31-8.04 1.61-1.24 3.073-.98 5.216 0l.1.495c-1.413-.31-2.293-.335-3.048.248-1.128.88-1.165 2.602.545 4.795s3.221 2.502 4.361 1.623zm5.377-3.445l.67.855-3.47 3.048-1.524-1.462-4.795-6.195v-.285l-3.023-3.878-1.45.83-.607-.78 3.271-3.89h.446l1.958 2.65 8.326 10.706-2.305-.372 2.503-1.227zM53.9 24.074c-.45-.683-.437-1.571.032-2.24.47-.67 1.299-.986 2.094-.797.796.189 1.395.843 1.514 1.652.118.809-.27 1.608-.977 2.017-.433.284-.964.377-1.468.258-.504-.12-.937-.442-1.196-.89zm7.693 13.282c-.483-.942-1.66-3.06-2.391-4.324l-.558-.98c-.631-1.127-1.016-1.746-1.524-2.477l-1.375.533-.458-.793 3.506-3.817h.47l1.636 2.999 1.55 2.713c.73 1.24 1.957 3.358 2.477 4.262l-3.333 1.884zm3.816-3.445l.546.954-5.427 3.098-.545-.954 1.672-1.487 1.537-.88 2.217-.73zM71.679 30.256l-2.218-5.464c-.78-1.933-1.388-2.354-2.775-1.784-.69.29-1.336.674-1.92 1.14l1.151-1.462.459 1.586c.545 1.474.074 2.342-.768 2.676-.668.36-1.5.143-1.908-.495-.632-1.859.631-3.804 3.717-5.08 2.8-1.128 4.386-.397 5.575 2.478l1.982 4.881c.174.434.434.57.756.446.322-.124.36-.285.459-.755l.743.16c.054 1.249-.756 2.371-1.958 2.714-1.199.603-2.66.141-3.295-1.04zm-3.395-3.618c.793-.632 2.168-1.672 3.097-2.329l.372.917c-.873.613-1.702 1.288-2.478 2.02-.841.681-1.142 1.83-.743 2.837.446 1.102 1.239 1.363 1.957 1.065.421-.16.694-.483 1.24-1.239l.606-1.016.36.223-.508 1.363c-.607 1.549-1.004 2.478-2.59 3.147-.737.383-1.605.422-2.374.107-.768-.315-1.36-.952-1.615-1.742-.707-1.574-.298-3.01 2.676-5.353zM80.562 14.657l1.5-1.56v4.422l-1.946.273-.52-4.349 13.629-1.933.681 4.324-1.92.273-1.24-4.25 1.86 1.078-12.044 1.722zm4.956 5.328c-.347-2.404-.681-4.832-1.09-7.223l4.051-.57c.26 2.366.608 4.782.954 7.235l.112.843c.347 2.478.694 4.844 1.103 7.236l-4.052.57c-.272-2.354-.607-4.783-.954-7.236l-.124-.855zm3.358 6.133l3.568-.136.174 1.239-7.98 1.127-.185-1.239 3.407-.842 1.016-.149zM96.595 22.091v-1.387-2.701l-1.437-.248v-.93l4.67-1.474.397.26.161 2.9-.074 3.655v4.956l-3.89-.075c.074-1.09.148-3.494.173-4.956zm-1.4 3.866l2.267-.421h2.478l2.23.508v1.152l-6.975-.136v-1.103zm3.481-6.889h1.76l-.322.632c.47-2.874 2.13-4.287 3.543-4.262 1.032-.03 1.91.744 2.007 1.772-.074 1.239-.768 1.92-1.71 1.895-.75-.046-1.427-.47-1.796-1.127l-.67-.905.942.36c-1.038.802-1.766 1.94-2.056 3.221l-1.735-.198.037-1.388zM117.088 22.351c-.066.425-.178.84-.335 1.24l-9.082-1.55.211-1.238 4.349.743c1.115.186 1.474-.173 1.648-1.239.26-1.524-.335-2.404-1.177-2.54-.843-.136-2.032.731-2.602 4.089-.483 2.825.694 4.336 2.478 4.634 1.075.191 2.18-.089 3.035-.768l.67.892c-1.241 1.634-3.336 2.375-5.328 1.883-1.603-.186-3.048-1.055-3.962-2.385-.914-1.33-1.21-2.99-.808-4.554.227-1.607 1.107-3.049 2.431-3.987 1.325-.938 2.978-1.288 4.569-.968 1.32.164 2.506.889 3.254 1.99.747 1.1.984 2.47.649 3.758zM122.8 30.17l-.372 1.028-5.823-2.106.371-1.029 2.206.298 1.697.607 1.92 1.201zm-5.043-.657c.409-.979 1.239-3.259 1.76-4.634l.458-1.239c.446-1.239.582-1.685.867-2.59l-1.24-.68.323-.88 4.894.11.297.385-.693 2.478-1.338 3.717c-.496 1.363-1.301 3.717-1.611 4.67l-3.717-1.337zm12.873-3.556l-.93 2.577c-.507 1.425-1.3 3.717-1.622 4.671l-3.655-1.326c.408-.978 1.239-3.196 1.747-4.621l.842-2.317c.52-1.425.347-2.057-.533-2.367-1.146-.248-2.345-.02-3.32.632l-.756-.272.52-1.437 1.5.545-1.066.322c2.354-1.685 3.878-1.945 5.464-1.363 1.896.731 2.738 2.478 1.809 4.956zm-3.11 5.39l2.007 1.239-.371 1.028-5.873-2.094.384-1.028 2.156.285 1.697.57zM135.945 35.72c1.093.465 2.348.333 3.32-.347v.471c-2.291 1.561-4.1 1.809-5.897.743-2.292-1.362-2.961-4.212-1.003-7.52 1.957-3.308 5.315-3.99 7.607-2.64 1.747 1.054 2.02 2.479 1.896 4.87l-.446.273c-.223-1.438-.508-2.255-1.338-2.751-1.24-.731-2.838-.149-4.263 2.255-1.288 2.218-1.115 3.903.124 4.646zm5.167 3.717l-.558.942-4.088-2.119.805-1.957 3.99-6.716.247-.149 2.478-4.224-1.3-1.054.507-.855 4.82 1.636.21.396-1.771 2.788-6.926 11.66-.508-2.28 2.094 1.932zM141.434 40.342l1.896-2.169 1.45 1.24-1.673 2.738-.719-1.24.632-.743c.275 1.014.844 1.924 1.635 2.614 1.041.88 1.896 1.016 2.478.298.583-.719.459-1.24-.433-2.565l-.731-1.103c-1.08-1.32-1.048-3.226.074-4.51 1.4-1.66 3.816-1.82 6.195.211.994.844 1.765 1.921 2.243 3.135l-1.785 1.87-1.45-1.238 1.351-2.664.645 1.239-.558.656c-.19-.841-.668-1.59-1.35-2.118-.806-.682-1.648-.78-2.193-.124-.546.657-.446 1.065.483 2.478l.669.991c1.239 1.958 1.239 3.47 0 4.807-1.61 1.896-4.064 1.698-6.604-.433-1.037-.904-1.815-2.067-2.255-3.37z"/>
            <path stroke="#FFCB04" stroke-width="1.48" d="M41.608 147.502c26.437 32.719 74.393 37.811 107.111 11.374 32.719-26.437 37.811-74.392 11.374-107.11"/>
        </g>
    </g>
</svg>
