<?xml version="1.0" encoding="UTF-8"?>
<svg version="1.1" viewBox="0 0 235.29 250.31" xml:space="preserve" xmlns="http://www.w3.org/2000/svg"><defs><clipPath id="clipPath46"><path d="m0 0h841.89v595.28h-841.89z"/></clipPath><clipPath id="clipPath70"><path d="m0 0h841.89v595.28h-841.89z"/></clipPath><clipPath id="clipPath106"><path d="m0 0h841.89v595.28h-841.89z"/></clipPath></defs><g transform="matrix(1.3333 0 0 -1.3333 -443.62 578.27)"><g clip-path="url(#clipPath46)"><g transform="translate(508.36 345.47)"><path d="m0 0c0 48.279-39.138 87.417-87.417 87.417s-87.417-39.138-87.417-87.417c0-42.232 29.948-77.469 69.766-85.634 2.951-7.629 10.34-13.05 19.011-13.05 8.923 0 16.487 5.739 19.256 13.719 38.329 9.267 66.801 43.788 66.801 84.965" fill="#fff"/></g><g transform="translate(508.36 345.47)"><path d="m0 0c0 48.279-39.138 87.417-87.417 87.417s-87.417-39.138-87.417-87.417c0-42.232 29.948-77.469 69.766-85.634 2.951-7.629 10.34-13.05 19.011-13.05 8.923 0 16.487 5.739 19.256 13.719 38.329 9.267 66.801 43.788 66.801 84.965z" fill="none" stroke="#231f20" stroke-width="1.633"/></g><g transform="translate(412.3 276.03)"><path d="m0 0s4.487-4.522 6.217-2.792-2.774 6.235-2.774 6.235" fill="none" stroke="#231f20" stroke-linecap="round" stroke-width="1.565"/></g></g><g transform="translate(433.12 258.94)"><path d="m0 0-19.124 18.784" fill="none" stroke="#231f20" stroke-linecap="round" stroke-width="1.565"/></g><g clip-path="url(#clipPath70)"><g transform="translate(412.33 258.85)"><path d="m0 0 20.279 20.44s1.473-1.884 0.48-2.877c-0.994-0.994-8.773-8.802-8.773-8.802l-1.651 1.651" fill="#231f20"/></g><g transform="translate(412.33 258.85)"><path d="m0 0 20.279 20.44s1.473-1.884 0.48-2.877c-0.994-0.994-8.773-8.802-8.773-8.802l-1.651 1.651" fill="none" stroke="#231f20" stroke-linecap="round" stroke-width="1.565"/></g><g transform="translate(381.35 276.14)"><path d="m0 0 0.578-0.323c0.68-0.38 1.158-0.657 1.433-0.831l0.414-0.261c0.187-0.118 0.312-0.121 0.374-9e-3 0.057 0.102-0.14 0.273-0.592 0.512-0.295 0.164-0.379 0.359-0.254 0.583 0.097 0.173 0.638 0.62 1.622 1.341 1.296 0.968 2.257 1.644 2.882 2.027-0.038-1.234-0.079-2.306-0.123-3.216-0.055-1.05-0.094-1.68-0.117-1.887s-0.08-0.393-0.171-0.555c-0.125-0.224-0.473-0.19-1.042 0.101-0.32 0.166-0.506 0.257-0.557 0.272s-0.094-8e-3 -0.128-0.068c-0.046-0.081 0.033-0.179 0.236-0.292-0.01 5e-3 0.041-0.023 0.152-0.085 0.112-0.063 0.218-0.122 0.32-0.179l0.898-0.502c0.264-0.147 0.495-0.257 0.695-0.329 0.152-0.085 0.264-0.147 0.334-0.187l1.788-1.019c0.274-0.153 0.466-0.267 0.577-0.343 0.111-0.075 0.151-0.104 0.121-0.087 0.213-0.119 0.345-0.133 0.396-0.042 0.063 0.112-7e-3 0.224-0.21 0.337-0.06 0.034-0.111 0.062-0.151 0.085l-0.167 0.093c-0.354 0.198-0.55 0.428-0.59 0.689-0.015 1.231 4e-3 2.238 0.056 3.02 0.029 1.712 0.117 3.033 0.264 3.96l2.013 3.602c0.142 0.253 0.268 0.395 0.379 0.426 0.139 0.082 0.571-0.073 1.297-0.466 0.142-0.079 0.236-0.078 0.281 3e-3 0.046 0.081-0.013 0.167-0.176 0.258l-0.97 0.522c-0.224 0.126-0.481 0.263-0.771 0.412-0.24 0.121-0.375 0.189-0.406 0.206l-1.212 0.698c-0.412 0.244-0.735 0.431-0.969 0.561-0.187 0.119-0.301 0.189-0.342 0.212-0.193 0.108-0.312 0.124-0.354 0.047-0.054-0.096 0.031-0.206 0.254-0.331 0.431-0.254 0.704-0.45 0.82-0.588s0.125-0.294 0.028-0.467l-1.714-3.066c-0.324-0.58-0.577-0.962-0.759-1.148-0.181-0.185-0.645-0.537-1.391-1.054-0.625-0.453-1.1-0.802-1.424-1.049-1.497-1.128-2.306-1.671-2.429-1.629-0.185-0.044-0.585 0.086-1.201 0.39-0.137 0.064-0.224 0.063-0.262-5e-3 -0.053-0.095 0.037-0.209 0.27-0.339m-13.665 12.401c-0.038-1.593 0.518-2.924 1.666-3.993 1.191-1.109 2.592-1.603 4.204-1.484 1.612 0.12 3.02 0.826 4.223 2.119 1.172 1.259 1.77 2.711 1.793 4.357 0.024 1.645-0.53 2.995-1.662 4.048-1.157 1.077-2.543 1.546-4.158 1.406s-3.016-0.848-4.204-2.125c-1.204-1.293-1.824-2.736-1.862-4.328m7.935 5.275c0.728 0.321 1.373 0.22 1.934-0.302 0.485-0.452 0.681-0.983 0.588-1.594-0.217-1.462-1.164-3.094-2.841-4.895-1.154-1.24-2.248-2.069-3.28-2.488-1.033-0.418-1.838-0.358-2.417 0.181-0.57 0.53-0.742 1.182-0.515 1.954 0.351 1.179 1.314 2.614 2.888 4.304 1.296 1.393 2.511 2.34 3.643 2.84m-22.58 10.649 0.222-0.354c0.086-0.139 0.181-0.291 0.286-0.459 0.128-0.139 0.195-0.214 0.201-0.224 0.092-0.148 0.22-0.369 0.384-0.664 0.164-0.296 0.292-0.517 0.384-0.665 0.086-0.138 0.169-0.182 0.248-0.133 0.108 0.068 0.058 0.28-0.152 0.637-0.176 0.283-0.265 0.492-0.267 0.626-0.012 0.195 0.11 0.373 0.366 0.533 0.03 0.019 0.113 0.071 0.251 0.157 0.139 0.087 0.252 0.157 0.341 0.213l4.88 3.046c1.351 0.843 2.408 1.236 3.17 1.177 0.631-0.044 1.155-0.402 1.574-1.072 0.369-0.592 0.49-1.181 0.362-1.768-0.101-0.474-0.452-0.946-1.051-1.416-0.198-0.165-0.697-0.497-1.497-0.997l-5.54-3.458c-0.099-0.061-0.208-0.116-0.329-0.164-0.177-0.069-0.4 0.113-0.671 0.547-0.191 0.305-0.331 0.431-0.42 0.375-0.098-0.061-0.095-0.176 9e-3 -0.344l0.194-0.31c-0.074 0.118 0.062-0.099 0.406-0.651 0.269-0.408 0.669-1.049 1.2-1.923l0.573-0.917c0.037-0.059 0.083-0.133 0.138-0.221l0.074-0.119c0.111-0.177 0.211-0.238 0.299-0.183 0.069 0.043 0.075 0.122 0.017 0.237-0.287 0.547-0.426 0.891-0.419 1.033 8e-3 0.142 0.169 0.311 0.485 0.508l5.679 3.545c1.331 0.831 2.11 1.646 2.337 2.446 0.306 1.067 0.102 2.173-0.612 3.317-1.391 2.228-3.255 2.613-5.592 1.154l-6.283-3.922c-0.134-0.071-0.231-0.103-0.289-0.098-0.184 8e-3 -0.411 0.216-0.679 0.624-0.218 0.329-0.365 0.471-0.44 0.424-0.083-0.052-0.03-0.231 0.161-0.537m-3.288 28.12c-0.294-0.508-0.466-1.361-0.515-2.559l-0.075 0.023c-0.683 1.913-1.778 2.745-3.285 2.495-1.816-0.301-2.506-1.776-2.067-4.425l0.684-4.127c0.038-0.23 0.077-0.465 0.117-0.706 0.042-0.252 0.112-0.37 0.209-0.354 0.087 0.015 0.102 0.226 0.045 0.634-0.077 0.536 0.051 0.831 0.384 0.886l9.853 1.633c0.425 0.07 0.7 0.069 0.824-5e-3s0.217-0.297 0.279-0.67c0.061-0.372 0.144-0.55 0.247-0.533 0.069 0.012 0.104 0.053 0.104 0.123 0 0.071-0.03 0.29-0.091 0.657-0.435 2.625-0.709 4.206-0.821 4.741s-0.288 1.095-0.527 1.68c-0.299 0.74-0.741 1.285-1.325 1.636s-1.232 0.467-1.946 0.349c-0.908-0.15-1.606-0.643-2.094-1.478m-1.164-2.797c0.417-0.312 0.708-0.968 0.874-1.969l-4.541-0.752c-0.275-0.046-0.473 0.048-0.594 0.282-0.055 0.118-0.112 0.357-0.172 0.717-0.168 1.012 0.58 1.656 2.242 1.931 1.044 0.173 1.774 0.103 2.191-0.209m6.878-0.126c0.07-0.425 0.05-0.693-0.061-0.806-0.069-0.082-0.723-0.225-1.961-0.43-0.723-0.12-1.217-0.196-1.482-0.228-0.531-0.065-0.94-0.121-1.227-0.168l-0.998-0.166c-0.112 0.68-0.147 1.21-0.104 1.59 0.112 0.962 0.976 1.577 2.592 1.845 1.927 0.319 3.007-0.227 3.241-1.637m-4.333 21.728c-5e-3 -0.081 0.078-0.145 0.25-0.191 0.711-0.174 1.196-0.324 1.456-0.451 0.26-0.128 0.497-0.344 0.71-0.65 0.188-0.339 0.295-0.684 0.319-1.036 0.017-0.282-3e-3 -1.063-0.061-2.344l-0.071-1.117-5.846 0.37 0.075 1.189c0.047 0.735 0.178 1.197 0.394 1.388 0.216 0.192 0.739 0.319 1.57 0.384 0.328 0.026 0.519 0.049 0.572 0.069 0.054 0.02 0.083 0.071 0.088 0.152 7e-3 0.105-0.059 0.162-0.198 0.171-0.105 7e-3 -0.192 6e-3 -0.262-1e-3 -0.512 9e-3 -1.267 0.045-2.265 0.109-0.371 0.023-0.666 0.048-0.886 0.073-0.647 0.076-1.075 0.121-1.284 0.134s-0.317-0.033-0.323-0.137c-8e-3 -0.117 0.202-0.218 0.627-0.304 0.793-0.167 1.275-0.423 1.445-0.767s0.209-1.157 0.116-2.439l-5.133 0.325c0.016 0.794 0.034 1.354 0.054 1.68 0.067 1.058 0.301 1.847 0.701 2.364 0.399 0.518 1.003 0.804 1.81 0.859 0.304 0.015 0.459 0.082 0.466 0.198 8e-3 0.116-0.047 0.178-0.163 0.186-0.139 8e-3 -0.512 3e-3 -1.119-0.017l-1.906-0.036c0.011-0.374 9e-3 -0.688-7e-3 -0.943l-0.075-1.183c-0.11-1.356-0.209-3.103-0.298-5.24-0.024-0.569-0.046-1.013-0.066-1.332-0.021-0.319 0.027-0.482 0.143-0.489 0.104-7e-3 0.168 0.169 0.19 0.529 0.021 0.325 0.069 0.537 0.146 0.637 0.076 0.1 0.207 0.15 0.393 0.15 0.07 7e-3 0.453-0.011 1.147-0.055l8.809-0.558c0.185-0.012 0.352-0.034 0.502-0.067 0.275-0.064 0.412-0.37 0.412-0.917 3e-3 -0.303 9e-3 -0.481 0.016-0.534 8e-3 -0.053 0.044-0.081 0.11-0.086 0.088-5e-3 0.138 0.096 0.151 0.305l0.093 1.462c0.088 2.3 0.298 4.977 0.631 8.031 0.012-1e-3 -0.104 9e-3 -0.347 0.03s-0.643 0.055-1.199 0.102c-1.055 0.079-1.594 0.119-1.617 0.12-0.174 0.011-0.264-0.03-0.27-0.123m-1.792 19.121c-1.154 0.228-2.094 0.441-2.82 0.64-0.044-0.193-0.125-0.472-0.244-0.837-0.133-0.409-0.276-0.863-0.429-1.364-0.153-0.5-0.332-1.065-0.537-1.695-0.369-1.139-0.682-2.073-0.937-2.803-0.255-0.729-0.388-1.111-0.399-1.144l-0.393-1.21-0.081-0.249c0.391-0.152 1.114-0.447 2.168-0.887 0.506-0.213 0.803-0.334 0.891-0.363 0.133-0.043 0.215-0.015 0.247 0.085 0.04 0.121-0.17 0.299-0.628 0.534-0.785 0.389-1.274 0.838-1.467 1.347-0.194 0.509-0.147 1.205 0.14 2.09 0.054 0.166 0.101 0.309 0.14 0.431l7.035-2.284c2.107-0.684 3.229-1.061 3.366-1.13 0.252-0.13 0.29-0.503 0.115-1.118-0.093-0.325-0.141-0.511-0.145-0.558-3e-3 -0.048 0.029-0.083 0.095-0.104 0.089-0.029 0.158 0.034 0.209 0.189l0.832 2.845 0.604 1.692c0.036 0.111 0.086 0.247 0.151 0.409 0.054 0.13 0.087 0.211 0.098 0.244 0.057 0.176 0.031 0.283-0.08 0.319-0.088 0.029-0.158-0.017-0.209-0.136-0.262-0.619-0.455-0.988-0.58-1.108-0.124-0.12-0.327-0.141-0.607-0.063l-10.082 3.274c0.072 0.221 0.156 0.48 0.253 0.779 0.251 0.774 0.588 1.288 1.008 1.542 0.421 0.255 1.085 0.345 1.99 0.271 0.459-0.039 0.708 2e-3 0.747 0.124 0.025 0.077-6e-3 0.13-0.094 0.159-0.044 0.014-0.163 0.04-0.357 0.079m8.235 16.588c-1.064 0.501-1.924 0.935-2.581 1.303-0.09-0.177-0.236-0.428-0.439-0.753-0.228-0.365-0.476-0.771-0.746-1.22-0.27-0.448-0.58-0.953-0.931-1.515-0.634-1.016-1.163-1.847-1.587-2.493-0.424-0.647-0.645-0.984-0.663-1.014l-0.674-1.08-0.139-0.221c0.343-0.242 0.973-0.703 1.89-1.385 0.438-0.329 0.697-0.518 0.776-0.567 0.118-0.074 0.205-0.067 0.261 0.022 0.067 0.108-0.093 0.332-0.481 0.67-0.668 0.567-1.034 1.121-1.098 1.662-0.065 0.54 0.149 1.205 0.641 1.994 0.092 0.148 0.172 0.276 0.24 0.384l6.275-3.917c1.879-1.173 2.876-1.809 2.993-1.909 0.212-0.188 0.159-0.559-0.16-1.113-0.168-0.293-0.26-0.461-0.275-0.507-0.014-0.045 8e-3 -0.087 0.067-0.124 0.079-0.049 0.162-5e-3 0.248 0.133l1.496 2.561 0.995 1.495c0.061 0.099 0.143 0.219 0.246 0.361 0.083 0.112 0.134 0.183 0.153 0.212 0.098 0.158 0.098 0.268 0 0.329-0.079 0.049-0.158 0.022-0.236-0.081-0.404-0.537-0.681-0.849-0.831-0.936-0.149-0.086-0.351-0.057-0.603 0.087l-8.992 5.613c0.123 0.197 0.268 0.429 0.434 0.695 0.43 0.69 0.881 1.108 1.351 1.253 0.469 0.145 1.135 0.072 1.996-0.219 0.436-0.148 0.687-0.168 0.755-0.06 0.043 0.069 0.025 0.128-0.053 0.177-0.04 0.025-0.149 0.079-0.328 0.163m15.7 9.597c-0.059-0.057-0.039-0.16 0.058-0.309 0.411-0.606 0.671-1.043 0.778-1.311 0.108-0.269 0.139-0.588 0.093-0.958-0.088-0.378-0.24-0.705-0.458-0.983-0.176-0.22-0.715-0.787-1.616-1.699l-0.801-0.782-4.092 4.191 0.852 0.832c0.527 0.515 0.934 0.77 1.223 0.767 0.288-2e-3 0.762-0.258 1.422-0.767 0.261-0.2 0.418-0.311 0.471-0.332 0.054-0.021 0.11-3e-3 0.168 0.054 0.075 0.074 0.064 0.16-0.033 0.26-0.073 0.075-0.139 0.133-0.195 0.175-0.374 0.35-0.91 0.882-1.609 1.597-0.26 0.266-0.463 0.482-0.609 0.649-0.429 0.49-0.717 0.81-0.863 0.959-0.147 0.15-0.257 0.188-0.332 0.115-0.084-0.082 3e-3 -0.297 0.262-0.646 0.477-0.655 0.663-1.168 0.559-1.537-0.104-0.37-0.62-1-1.548-1.889l-3.593 3.68c0.543 0.579 0.932 0.982 1.165 1.21 0.759 0.741 1.461 1.171 2.104 1.287 0.644 0.117 1.284-0.075 1.919-0.575 0.236-0.192 0.396-0.247 0.479-0.165 0.084 0.081 0.085 0.163 4e-3 0.246-0.098 0.1-0.378 0.346-0.842 0.738l-1.44 1.25c-0.242-0.285-0.454-0.517-0.637-0.695l-0.848-0.828c-0.989-0.934-2.233-2.164-3.731-3.692-0.399-0.406-0.713-0.721-0.942-0.944-0.228-0.223-0.302-0.376-0.221-0.459 0.073-0.075 0.238 0.013 0.496 0.265 0.233 0.227 0.411 0.353 0.535 0.376 0.123 0.023 0.254-0.027 0.392-0.152 0.057-0.042 0.329-0.312 0.815-0.81l6.166-6.315c0.13-0.133 0.239-0.261 0.328-0.386 0.161-0.231 0.059-0.55-0.308-0.957-0.201-0.227-0.316-0.363-0.346-0.407-0.029-0.044-0.021-0.09 0.025-0.137 0.061-0.063 0.166-0.021 0.316 0.125l1.048 1.023c1.606 1.649 3.555 3.496 5.848 5.54 8e-3 -8e-3 -0.071 0.077-0.237 0.255-0.167 0.179-0.441 0.472-0.822 0.879-0.73 0.765-1.104 1.156-1.12 1.173-0.122 0.124-0.216 0.154-0.283 0.089m15.707 8.902c-0.3-0.178-0.37-0.402-0.21-0.672 0.077-0.13 0.193-0.196 0.35-0.198 0.156-2e-3 0.246-0.023 0.27-0.063 0.047-0.08-4e-3 -0.164-0.154-0.253-0.18-0.107-0.422-0.098-0.725 0.027s-0.761 0.613-1.373 1.467c-0.769 1.071-1.548 1.714-2.337 1.93-0.789 0.215-1.749 0.036-2.881-0.539l-0.038 0.099c0.801 0.608 1.363 1.143 1.685 1.604 0.728 1.051 0.808 2.057 0.24 3.018-0.248 0.42-0.596 0.734-1.043 0.943-0.447 0.208-0.921 0.278-1.422 0.212-0.64-0.082-1.661-0.536-3.061-1.364l-0.871-0.515c-0.17-0.101-0.35-0.207-0.54-0.319-0.2-0.119-0.305-0.181-0.315-0.187l-0.496-0.293c-0.17-0.1-0.345-0.204-0.525-0.31l-0.27-0.16c-0.39-0.23-0.626-0.38-0.707-0.448-0.081-0.069-0.101-0.138-0.059-0.208 0.053-0.091 0.19-0.071 0.41 0.06 0.31 0.183 0.553 0.286 0.729 0.309 0.139 0.014 0.247-0.02 0.324-0.103 0.076-0.084 0.269-0.386 0.577-0.908l4.583-7.752c0.208-0.351 0.317-0.571 0.329-0.659 0.023-0.176-0.13-0.375-0.458-0.596-0.4-0.26-0.576-0.431-0.528-0.511 0.042-0.072 0.133-0.066 0.273 0.017l0.691 0.408c0.03 0.018 0.1 0.059 0.21 0.124 0.13 0.077 0.245 0.145 0.345 0.204l1.081 0.639c0.159 0.094 0.33 0.195 0.51 0.302l0.24 0.142 1.456 0.86c0.12 0.071 0.156 0.147 0.109 0.227-0.053 0.09-0.2 0.064-0.44-0.078-0.39-0.231-0.675-0.355-0.853-0.373-0.179-0.017-0.319 0.059-0.42 0.23-0.045 0.054-0.302 0.478-0.771 1.271l-2.02 3.416c0.584 0.359 1.101 0.461 1.55 0.307s0.955-0.593 1.518-1.316l0.879-1.145c0.363-0.476 0.892-0.813 1.589-1.01 0.895-0.257 1.802-0.113 2.723 0.431 0.73 0.432 0.93 0.928 0.598 1.489-0.201 0.34-0.451 0.421-0.752 0.244m-6.906 2.843c-0.114-0.607-0.563-1.136-1.35-1.588l-1.473 2.492c-0.562 0.95-0.859 1.51-0.892 1.68-0.05 0.267 0.09 0.498 0.42 0.694 1.021 0.603 1.913 0.259 2.676-1.031 0.526-0.891 0.733-1.64 0.619-2.247m30.445 12.812c-0.3 1.137-0.519 2.076-0.658 2.815-0.194-0.044-0.48-0.093-0.86-0.146-0.426-0.06-0.897-0.13-1.414-0.211-0.517-0.082-1.103-0.168-1.759-0.26-1.186-0.166-2.163-0.294-2.93-0.383-0.768-0.09-1.169-0.138-1.204-0.142l-1.26-0.177-0.259-0.036c0.034-0.418 0.085-1.197 0.151-2.338 0.029-0.547 0.051-0.867 0.064-0.959 0.019-0.138 0.08-0.2 0.184-0.186 0.127 0.018 0.195 0.284 0.205 0.799 6e-3 0.876 0.196 1.513 0.569 1.909 0.373 0.397 1.02 0.659 1.941 0.788 0.172 0.024 0.322 0.045 0.449 0.063l1.025-7.325c0.307-2.194 0.459-3.367 0.457-3.521-7e-3 -0.283-0.326-0.481-0.956-0.592-0.332-0.059-0.52-0.097-0.565-0.115-0.044-0.018-0.061-0.061-0.052-0.131 0.013-0.092 0.1-0.127 0.261-0.104l2.924 0.497 1.785 0.197c0.115 0.016 0.26 0.03 0.434 0.043 0.14 8e-3 0.227 0.014 0.262 0.019 0.184 0.026 0.268 0.096 0.252 0.211-0.013 0.092-0.084 0.135-0.214 0.129-0.671-0.036-1.088-0.024-1.25 0.036-0.163 0.059-0.27 0.232-0.322 0.518l-1.469 10.498c0.23 0.032 0.501 0.07 0.812 0.114 0.805 0.112 1.415 0.035 1.828-0.232s0.784-0.824 1.114-1.671c0.166-0.429 0.311-0.635 0.438-0.617 0.081 0.011 0.115 0.062 0.102 0.154-7e-3 0.046-0.035 0.164-0.085 0.356m18.121-7.854c-0.347 0.03-0.535-0.11-0.563-0.423-0.013-0.151 0.043-0.272 0.169-0.365s0.187-0.163 0.183-0.209c-8e-3 -0.093-0.099-0.131-0.273-0.116-0.208 0.019-0.399 0.167-0.573 0.445s-0.261 0.942-0.261 1.992c1e-3 1.319-0.257 2.295-0.772 2.931-0.516 0.634-1.401 1.049-2.655 1.242l0.026 0.102c1.006 0.028 1.774 0.134 2.304 0.321 1.205 0.429 1.857 1.2 1.956 2.312 0.043 0.486-0.056 0.944-0.298 1.374s-0.586 0.763-1.031 1.002c-0.568 0.306-1.663 0.532-3.283 0.676l-1.008 0.09c-0.197 0.017-0.405 0.036-0.625 0.055-0.232 0.021-0.353 0.031-0.365 0.032l-0.573 0.051c-0.197 0.018-0.399 0.036-0.607 0.054l-0.313 0.028c-0.451 0.04-0.73 0.056-0.836 0.048s-0.162-0.053-0.169-0.134c-0.01-0.105 0.113-0.168 0.368-0.191 0.359-0.032 0.616-0.09 0.772-0.174 0.122-0.069 0.19-0.16 0.203-0.273 0.014-0.112-6e-3 -0.47-0.06-1.074l-0.797-8.97c-0.036-0.406-0.075-0.648-0.117-0.726-0.084-0.157-0.324-0.229-0.719-0.217-0.477 0.021-0.719-0.015-0.727-0.108-8e-3 -0.083 0.07-0.132 0.232-0.146l0.799-0.071c0.034-3e-3 0.115-0.01 0.243-0.022 0.15-0.013 0.283-0.025 0.399-0.035l1.251-0.111c0.185-0.016 0.382-0.034 0.59-0.053l0.278-0.024 1.684-0.15c0.139-0.012 0.213 0.028 0.221 0.121 9e-3 0.104-0.125 0.168-0.403 0.193-0.451 0.04-0.755 0.105-0.91 0.195-0.156 0.09-0.224 0.233-0.207 0.431-5e-3 0.07 0.033 0.564 0.114 1.482l0.351 3.953c0.684-0.049 1.164-0.267 1.439-0.654 0.274-0.387 0.43-1.038 0.465-1.954l0.047-1.443c0.017-0.599 0.251-1.181 0.702-1.747 0.577-0.73 1.398-1.142 2.463-1.237 0.845-0.075 1.297 0.211 1.354 0.86 0.035 0.393-0.121 0.606-0.468 0.637m-3.953 6.337c-0.447-0.428-1.121-0.595-2.023-0.503l0.256 2.882c0.098 1.1 0.183 1.728 0.255 1.885 0.116 0.247 0.364 0.353 0.746 0.319 1.181-0.105 1.705-0.904 1.573-2.397-0.092-1.031-0.361-1.76-0.807-2.186m24.218-0.413-0.395 0.139c-0.153 0.054-0.323 0.114-0.509 0.179-0.188 0.029-0.287 0.046-0.297 0.049-0.165 0.058-0.403 0.151-0.715 0.28-0.313 0.128-0.551 0.221-0.715 0.279-0.154 0.054-0.246 0.038-0.277-0.05-0.042-0.121 0.13-0.255 0.516-0.404 0.315-0.11 0.515-0.218 0.6-0.322 0.131-0.145 0.147-0.36 0.047-0.645-0.012-0.033-0.045-0.126-0.099-0.279-0.054-0.154-0.098-0.28-0.133-0.378l-1.911-5.427c-0.529-1.502-1.11-2.468-1.742-2.898-0.521-0.359-1.154-0.407-1.899-0.145-0.658 0.232-1.12 0.617-1.387 1.155-0.216 0.434-0.237 1.022-0.063 1.762 0.053 0.254 0.235 0.825 0.548 1.714l2.17 6.159c0.039 0.11 0.09 0.222 0.155 0.335 0.094 0.164 0.383 0.161 0.865-9e-3 0.34-0.12 0.527-0.13 0.562-0.032 0.039 0.11-0.035 0.198-0.221 0.264l-0.346 0.121c0.132-0.046-0.109 0.039-0.723 0.255-0.465 0.151-1.177 0.402-2.138 0.753l-1.019 0.359c-0.066 0.023-0.148 0.052-0.247 0.087l-0.132 0.046c-0.197 0.07-0.313 0.055-0.348-0.043-0.027-0.077 0.018-0.142 0.135-0.196 0.565-0.248 0.889-0.43 0.972-0.545 0.082-0.116 0.062-0.349-0.061-0.7l-2.224-6.314c-0.522-1.48-0.622-2.603-0.3-3.37 0.427-1.025 1.277-1.762 2.549-2.21 2.477-0.872 4.174-0.01 5.089 2.589l2.46 6.986c0.062 0.139 0.117 0.225 0.165 0.258 0.149 0.108 0.456 0.087 0.92-0.064 0.376-0.121 0.579-0.141 0.608-0.058 0.033 0.093-0.12 0.2-0.46 0.32m11.412-13.015c-0.11 0.573-0.498 1.496-1.163 2.769-0.541 1.038-0.862 1.809-0.961 2.313-0.1 0.504-0.019 0.954 0.243 1.353 0.301 0.456 0.697 0.71 1.19 0.761s1.011-0.102 1.555-0.46c0.388-0.255 0.671-0.567 0.847-0.933 0.134-0.283 0.209-0.649 0.226-1.099 0.018-0.449-0.032-0.858-0.149-1.226-0.118-0.369-0.132-0.581-0.045-0.639 0.078-0.051 0.145-0.033 0.203 0.054 0.032 0.049 0.052 0.091 0.062 0.126 0.191 0.376 0.453 0.815 0.785 1.32 0.096 0.146 0.227 0.324 0.393 0.535 0.167 0.21 0.266 0.339 0.298 0.388 0.083 0.126 0.076 0.221-0.021 0.285-0.068 0.045-0.141 0.03-0.217-0.044-0.215-0.221-0.395-0.283-0.541-0.187-0.078 0.051-0.183 0.176-0.316 0.375-0.4 0.597-0.843 1.056-1.329 1.375-0.902 0.594-1.831 0.812-2.784 0.653-0.953-0.158-1.704-0.655-2.254-1.49-0.466-0.709-0.694-1.436-0.683-2.18 7e-3 -0.812 0.355-1.848 1.043-3.108 0.612-1.141 0.949-1.856 1.009-2.146 0.073-0.396-0.025-0.798-0.293-1.206-0.313-0.475-0.758-0.76-1.335-0.854-0.576-0.093-1.126 0.032-1.651 0.378-0.592 0.389-1.005 0.967-1.238 1.733-0.214 0.711-0.152 1.471 0.185 2.279 0.197 0.468 0.247 0.735 0.15 0.798-0.097 0.064-0.197 0.018-0.299-0.137-0.038-0.058-0.157-0.259-0.354-0.601-0.1-0.172-0.241-0.398-0.427-0.68-0.23-0.349-0.451-0.642-0.662-0.879-0.259-0.288-0.431-0.496-0.514-0.622-0.089-0.136-0.095-0.229-0.017-0.281 0.048-0.031 0.122-4e-3 0.222 0.084 0.317 0.292 0.558 0.384 0.723 0.275 0.059-0.038 0.117-0.098 0.175-0.178 0.777-1.082 1.462-1.817 2.054-2.207 0.971-0.639 1.959-0.876 2.966-0.711 1.006 0.166 1.8 0.69 2.382 1.574 0.517 0.786 0.698 1.599 0.542 2.44m16.911-10.09c0.76 0.898 1.403 1.616 1.929 2.154-0.147 0.133-0.352 0.339-0.613 0.62-0.293 0.315-0.621 0.661-0.984 1.038-0.362 0.376-0.769 0.807-1.221 1.292-0.816 0.877-1.48 1.603-1.994 2.181s-0.783 0.879-0.807 0.905l-0.867 0.931-0.178 0.192c-0.322-0.268-0.932-0.757-1.829-1.465-0.431-0.338-0.681-0.539-0.749-0.602-0.102-0.095-0.118-0.181-0.046-0.257 0.087-0.094 0.344 3e-3 0.772 0.29 0.721 0.497 1.351 0.706 1.89 0.628s1.125-0.457 1.758-1.138c0.119-0.128 0.222-0.238 0.309-0.332l-5.414-5.04c-1.621-1.509-2.495-2.307-2.622-2.393-0.236-0.156-0.581-9e-3 -1.033 0.443-0.239 0.239-0.378 0.371-0.418 0.397-0.04 0.027-0.086 0.016-0.137-0.032-0.068-0.063-0.047-0.155 0.064-0.274l2.083-2.11 1.185-1.35c0.079-0.085 0.174-0.195 0.285-0.331 0.086-0.11 0.141-0.177 0.165-0.203 0.127-0.136 0.233-0.165 0.318-0.085 0.068 0.063 0.062 0.146-0.017 0.248-0.414 0.53-0.643 0.879-0.688 1.046-0.044 0.167 0.036 0.354 0.241 0.56l7.758 7.223c0.158-0.17 0.345-0.37 0.558-0.6 0.555-0.595 0.841-1.139 0.859-1.63 0.018-0.492-0.226-1.115-0.73-1.871-0.257-0.382-0.342-0.62-0.255-0.713 0.056-0.06 0.117-0.058 0.185 5e-3 0.034 0.031 0.115 0.123 0.243 0.273m4.596-23.092c-0.225 0.6-0.317 0.969-0.276 1.107s0.29 0.307 0.747 0.507l9.011 3.942 0.324 0.085c0.149-0.023 0.307-0.195 0.473-0.516 0.131-0.273 0.215-0.43 0.251-0.471s0.084-0.049 0.144-0.022c0.081 0.035 0.091 0.122 0.03 0.26l-0.07 0.16c-0.056 0.128-0.152 0.349-0.29 0.663-0.137 0.314-0.243 0.556-0.318 0.727l-0.356 0.814c-0.154 0.352-0.338 0.772-0.552 1.262s-0.298 0.682-0.251 0.575c-0.103 0.234-0.169 0.37-0.198 0.408s-0.081 0.041-0.156 8e-3c-0.074-0.032-0.046-0.198 0.084-0.496 0.233-0.532 0.216-0.857-0.05-0.973 0.011 4e-3 -0.077-0.04-0.264-0.135-0.192-0.084-0.389-0.17-0.591-0.258l-7.683-3.361c-0.725-0.317-1.165-0.478-1.321-0.483-0.157-5e-3 -0.339 0.144-0.547 0.446-0.165 0.346-0.265 0.547-0.301 0.601s-0.081 0.069-0.134 0.046c-0.096-0.042-0.109-0.143-0.039-0.303 0.065-0.149 0.171-0.375 0.316-0.68 0.437-0.912 0.761-1.608 0.97-2.087 0.201-0.458 0.425-1.013 0.672-1.666 0.018-0.069 0.042-0.14 0.075-0.215 0.061-0.138 0.136-0.188 0.227-0.148 0.079 0.034 0.103 0.102 0.073 0.203m16.749-14.48c-0.031 0.196-0.171 0.867-0.42 2.014-0.025 0.114-0.054 0.244-0.086 0.392-0.034 0.159-0.059 0.272-0.074 0.341l-0.081 0.374c-0.045 0.205-0.113 0.297-0.204 0.277-0.068-0.015-0.093-0.091-0.075-0.23l0.126-0.74c0.052-0.298 0.052-0.5-3e-3 -0.607-0.054-0.107-0.217-0.19-0.491-0.25l-6.76-1.472 6.398 7.656c-0.148 0.515-0.313 1.193-0.496 2.033-0.089 0.409-0.15 0.717-0.184 0.924-0.068 0.425-0.11 0.671-0.125 0.739-0.035 0.159-0.106 0.227-0.214 0.204-0.096-0.021-0.13-0.124-0.102-0.308 0.125-0.686 0.13-1.173 0.015-1.46-0.155-0.378-0.475-0.656-0.959-0.833-0.143-0.055-0.571-0.16-1.285-0.316l-6.991-1.521c-0.726-0.158-1.14-0.219-1.243-0.182-0.156 0.062-0.32 0.377-0.491 0.946-0.143 0.492-0.254 0.73-0.334 0.712-0.091-0.019-0.118-0.114-0.08-0.285-0.01 0.046 0.025-0.089 0.106-0.405 0.163-0.642 0.288-1.162 0.375-1.56 0.037-0.17 0.118-0.598 0.244-1.285 4e-3 -0.07 0.016-0.157 0.039-0.259 0.037-0.17 0.1-0.246 0.191-0.226 0.035 8e-3 0.056 0.018 0.065 0.032 0.047 0.058 0.029 0.277-0.054 0.655-0.069 0.322-0.085 0.612-0.047 0.873 0.024 0.162 0.156 0.268 0.394 0.32l5.298 1.153c0.068 0.015 0.261 0.057 0.58 0.127 0.317 0.069 0.692 0.15 1.124 0.244l1.26 0.275c-2.021-2.355-3.805-4.501-5.352-6.438-1.547-1.936-2.306-2.967-2.279-3.092 0.017-0.079 0.122-0.098 0.315-0.056l2.896 0.63c2.124 0.462 3.844 0.837 5.162 1.124l1.976 0.43c0.656 0.155 1.023 0.217 1.101 0.187 0.123-0.02 0.223-0.178 0.3-0.476 0.134-0.506 0.216-0.8 0.245-0.881 0.03-0.081 0.073-0.115 0.13-0.103 0.091 0.02 0.121 0.128 0.09 0.323m-3.232-29.216c1.174-0.053 2.135-0.124 2.883-0.212 0.015 0.198 0.054 0.486 0.117 0.864 0.07 0.424 0.143 0.895 0.22 1.413 0.077 0.517 0.17 1.102 0.278 1.756 0.196 1.181 0.365 2.152 0.509 2.911 0.144 0.76 0.218 1.157 0.224 1.191l0.208 1.256 0.043 0.258c-0.409 0.091-1.168 0.276-2.277 0.554-0.531 0.135-0.843 0.21-0.934 0.225-0.138 0.023-0.215-0.017-0.232-0.12-0.021-0.126 0.212-0.271 0.701-0.435 0.834-0.267 1.385-0.638 1.652-1.113 0.267-0.474 0.324-1.17 0.172-2.087-0.028-0.172-0.053-0.321-0.074-0.447l-7.297 1.209c-2.185 0.362-3.351 0.567-3.496 0.614-0.269 0.092-0.362 0.455-0.281 1.089 0.044 0.335 0.064 0.526 0.06 0.574s-0.04 0.077-0.109 0.088c-0.092 0.016-0.152-0.057-0.178-0.217l-0.399-2.939-0.345-1.763c-0.019-0.114-0.048-0.257-0.088-0.427-0.034-0.136-0.055-0.221-0.06-0.255-0.031-0.183 0.011-0.285 0.126-0.304 0.092-0.015 0.154 0.04 0.187 0.166 0.166 0.651 0.302 1.045 0.408 1.182 0.105 0.138 0.302 0.188 0.59 0.152l10.458-1.732c-0.038-0.229-0.083-0.499-0.134-0.808-0.133-0.803-0.389-1.361-0.767-1.676-0.378-0.314-1.021-0.502-1.927-0.564-0.46-0.03-0.699-0.108-0.72-0.234-0.014-0.08 0.025-0.128 0.117-0.143 0.045-8e-3 0.167-0.016 0.365-0.026m-14.665-15.353c0.231 0.521 0.42 0.83 0.568 0.928 0.189 0.13 0.567 0.171 1.136 0.124 0.666-0.055 1.323-0.105 1.969-0.15 5.053-0.358 7.94-0.577 8.66-0.657 0.563-0.058 0.859-0.055 0.889 8e-3 0.029 0.063-0.108 0.237-0.412 0.52-0.417 0.399-0.719 0.7-0.906 0.903l-4.368 4.368c-0.855 0.861-1.499 1.515-1.932 1.96-0.625 0.613-0.979 1.009-1.061 1.189-0.083 0.18-0.037 0.485 0.139 0.916 0.131 0.336 0.165 0.519 0.102 0.549-0.105 0.049-0.192 0-0.261-0.148-0.035-0.073-0.067-0.142-0.096-0.205l-1.217-2.607c-0.089-0.189-0.088-0.305 1e-3 -0.347 0.08-0.037 0.159 0.016 0.238 0.159 0.248 0.449 0.389 0.697 0.425 0.744 0.16 0.208 0.33 0.269 0.509 0.186 0.095-0.045 0.209-0.13 0.343-0.256l0.864-0.827c0.614-0.608 1.005-1.008 1.171-1.201-0.21-0.505-0.424-0.976-0.641-1.414l-0.575-1.232-0.133-0.284c-0.719 0.08-1.21 0.142-1.471 0.187l-1.182 0.147c-0.448 0.056-0.699 0.096-0.752 0.12-0.105 0.05-0.129 0.164-0.071 0.342 0.013 0.083 0.054 0.199 0.123 0.346 0.27 0.605 0.352 0.933 0.247 0.982-0.106 0.049-0.225-0.069-0.357-0.353-0.089-0.19-0.245-0.552-0.47-1.089-0.113-0.268-0.25-0.576-0.412-0.924-0.138-0.294-0.399-0.826-0.784-1.596-0.192-0.385-0.309-0.619-0.348-0.704-0.152-0.326-0.239-0.532-0.26-0.619-0.021-0.086 0.01-0.149 0.095-0.188 0.094-0.045 0.171-4e-3 0.23 0.123m6.335 4.296 0.413 0.884c0.049 0.106 0.103 0.222 0.163 0.348 0.063 0.137 0.118 0.253 0.162 0.348 0.294-0.304 0.817-0.817 1.57-1.539 0.673-0.646 1.191-1.169 1.556-1.57l-0.33 0.026c-0.307 0.033-0.542 0.056-0.703 0.07-0.583 0.04-1.584 0.134-3.003 0.281-0.198 0.016-0.315 0.026-0.351 0.03 0.236 0.506 0.41 0.88 0.523 1.122m-9.462-19.13c0.581 0.054 1.537 0.351 2.867 0.892 1.085 0.439 1.884 0.684 2.395 0.735s0.952-0.073 1.323-0.372c0.425-0.342 0.64-0.762 0.644-1.257 4e-3 -0.496-0.198-0.997-0.607-1.504-0.291-0.362-0.628-0.613-1.01-0.754-0.294-0.105-0.666-0.146-1.115-0.12s-0.852 0.115-1.207 0.267-0.565 0.187-0.631 0.105c-0.058-0.072-0.047-0.141 0.035-0.207 0.045-0.036 0.085-0.061 0.119-0.073 0.355-0.227 0.768-0.529 1.239-0.908 0.136-0.11 0.3-0.257 0.494-0.443s0.313-0.297 0.358-0.334c0.118-0.094 0.213-0.096 0.286-6e-3 0.051 0.064 0.043 0.137-0.024 0.221-0.199 0.235-0.243 0.42-0.134 0.556 0.058 0.072 0.193 0.165 0.404 0.279 0.633 0.341 1.131 0.738 1.496 1.19 0.678 0.842 0.983 1.745 0.917 2.709-0.067 0.964-0.49 1.76-1.268 2.387-0.661 0.532-1.362 0.828-2.105 0.889-0.809 0.069-1.873-0.177-3.193-0.741-1.194-0.501-1.938-0.767-2.233-0.799-0.401-0.035-0.792 0.101-1.172 0.407-0.443 0.357-0.684 0.827-0.722 1.41s0.14 1.118 0.533 1.607c0.445 0.552 1.06 0.908 1.844 1.067 0.729 0.145 1.479 0.011 2.251-0.402 0.447-0.241 0.708-0.316 0.78-0.226 0.073 0.091 0.037 0.194-0.107 0.311-0.055 0.043-0.243 0.18-0.565 0.41-0.162 0.115-0.374 0.278-0.636 0.489-0.326 0.263-0.596 0.511-0.812 0.744-0.262 0.286-0.452 0.476-0.57 0.571-0.126 0.102-0.219 0.117-0.277 0.044-0.037-0.045-0.016-0.122 0.062-0.229 0.26-0.344 0.328-0.593 0.204-0.747-0.044-0.054-0.108-0.106-0.194-0.157-1.151-0.669-1.949-1.28-2.393-1.833-0.729-0.905-1.06-1.866-0.991-2.884 0.068-1.017 0.514-1.858 1.338-2.521 0.733-0.591 1.525-0.848 2.377-0.773m-11.36-15.867c0.841-0.822 1.511-1.515 2.01-2.078 0.143 0.137 0.364 0.326 0.662 0.567 0.335 0.269 0.704 0.572 1.106 0.907 0.402 0.334 0.86 0.71 1.376 1.125 0.933 0.751 1.705 1.362 2.318 1.833 0.613 0.472 0.933 0.718 0.96 0.74l0.992 0.798 0.203 0.164c-0.244 0.341-0.687 0.984-1.329 1.929-0.307 0.455-0.489 0.718-0.547 0.791-0.088 0.108-0.172 0.13-0.254 0.064-0.099-0.08-0.021-0.343 0.234-0.791 0.444-0.755 0.608-1.398 0.491-1.93-0.116-0.532-0.536-1.089-1.261-1.672-0.135-0.11-0.253-0.204-0.353-0.285l-4.639 5.761c-1.389 1.725-2.123 2.654-2.2 2.787-0.139 0.247 0.033 0.58 0.516 0.999 0.256 0.22 0.398 0.35 0.427 0.388s0.021 0.085-0.023 0.139c-0.058 0.072-0.151 0.058-0.278-0.044l-2.253-1.927-1.432-1.086c-0.09-0.073-0.207-0.159-0.35-0.26-0.116-0.078-0.188-0.128-0.215-0.15-0.144-0.117-0.181-0.22-0.108-0.311 0.059-0.072 0.142-0.072 0.25 0 0.558 0.374 0.922 0.578 1.092 0.61 0.169 0.033 0.35-0.061 0.542-0.28l6.648-8.255c-0.181-0.146-0.393-0.317-0.638-0.514-0.633-0.51-1.196-0.757-1.687-0.74-0.492 0.018-1.097 0.305-1.814 0.863-0.363 0.283-0.594 0.385-0.693 0.304-0.064-0.051-0.066-0.112-8e-3 -0.184 0.029-0.036 0.114-0.123 0.255-0.262m-17.853-3.85c0.072 0.039 0.083 0.143 0.032 0.313-0.223 0.698-0.347 1.19-0.374 1.478-0.027 0.289 0.034 0.603 0.184 0.945 0.191 0.337 0.43 0.608 0.717 0.812 0.232 0.162 0.909 0.552 2.033 1.171l0.989 0.522 2.734-5.181-1.054-0.556c-0.651-0.343-1.114-0.472-1.39-0.388-0.275 0.085-0.657 0.464-1.146 1.14-0.193 0.266-0.312 0.416-0.357 0.452-0.045 0.035-0.104 0.034-0.176-4e-3 -0.093-0.05-0.107-0.136-0.042-0.259 0.049-0.093 0.095-0.167 0.137-0.223 0.26-0.442 0.622-1.104 1.089-1.988 0.173-0.329 0.306-0.594 0.399-0.795 0.273-0.592 0.458-0.98 0.556-1.165s0.193-0.253 0.286-0.204c0.103 0.054 0.08 0.285-0.069 0.693-0.271 0.764-0.304 1.308-0.099 1.633s0.879 0.782 2.02 1.371l2.4-4.548c-0.684-0.401-1.171-0.678-1.46-0.83-0.938-0.495-1.733-0.708-2.383-0.637s-1.209 0.437-1.677 1.097c-0.171 0.251-0.309 0.349-0.412 0.295-0.103-0.055-0.128-0.133-0.074-0.236 0.066-0.123 0.265-0.439 0.598-0.946l1.026-1.608c0.313 0.205 0.582 0.367 0.808 0.486l1.049 0.553c1.213 0.614 2.755 1.441 4.625 2.48 0.498 0.276 0.888 0.488 1.171 0.637 0.283 0.15 0.397 0.276 0.343 0.378-0.049 0.093-0.232 0.055-0.551-0.114-0.288-0.151-0.495-0.221-0.62-0.208s-0.235 0.099-0.332 0.257c-0.043 0.056-0.227 0.392-0.552 1.008l-4.119 7.806c-0.086 0.165-0.155 0.319-0.204 0.463-0.089 0.268 0.1 0.545 0.567 0.831 0.257 0.16 0.406 0.258 0.447 0.292s0.046 0.08 0.016 0.138c-0.042 0.078-0.155 0.068-0.34-0.03l-1.295-0.683c-2.008-1.125-4.402-2.342-7.181-3.651-5e-3 0.01 0.047-0.094 0.155-0.312 0.109-0.219 0.289-0.578 0.539-1.076 0.483-0.941 0.73-1.422 0.741-1.443 0.081-0.154 0.163-0.209 0.246-0.166" fill="#231f20"/></g></g><g transform="translate(404.21 387.78)"><path d="m0 0 1.504-7.184-2.864 0.979h-9.571v-7.375h6.778l2.793 0.954v-7.899l-2.65 0.883-6.921-0.024v-8.378l11.456-0.023v0.023l2.84 0.979-1.432-7.184h-20.716l0.931 2.53v28.927l-0.931 2.792z" fill="#231f20"/></g><g transform="translate(434.89 355.76)"><path d="m0 0-5.657 29.189 1.003 2.745h-12.745l0.955-2.817-5.609-29.141-1.432-2.315h9.738l-0.883 2.387 0.787 4.916h5.681l0.787-4.845-0.907-2.458h9.714zm-9.189 11.17h-3.652l1.814 11.646z" fill="#231f20"/></g><g transform="translate(458.1 387.83)"><path d="m0 0 1.48-7.184-2.84 0.979h-5.132v-25.538l1.241-2.554h-9.141l0.955 2.554v25.538h-5.012l-2.84-0.979 1.48 7.184z" fill="#231f20"/></g><g transform="translate(386.81 348.38)"><path d="m0 0 4.606-4.559v-3.126l-6.945-3.031v3.27l-1.217 1.241-4.392-0.024-1.312-1.313v-19.284l1.241-1.218 4.367-0.023 1.265 1.312 0.024 1.552 6.969 3.031v-7.566l-4.606-4.535h-11.623l-4.559 4.559v25.155l4.559 4.559zm18.425 0-0.954-2.84-0.024-25.227 11.456-0.024v0.024l2.84 0.978-0.215-1.002-1.217-6.182h-20.74l0.93 2.53v28.951l-0.93 2.792zm39.691 0.024-0.907-2.745-0.048-27.208-4.32-4.344h-11.623l-4.511 4.511v26.993l-0.931 2.793h8.712l-0.931-2.793v-24.105l1.193-1.217 4.32-0.024 1.265 1.289v24.105l-0.931 2.745zm21.766-0.048 4.535-4.535v-9.236l-2.84-2.864 2.84-2.816-0.024-10.382-4.391-4.416h-17.161l0.86 2.315v29.357l-0.86 2.577zm-9.26-16.015 5.394 2.793 1.432 1.456v3.89l-1.48 1.456h-5.346zm0.024-12.172h5.322l1.528 1.456v5.156l-1.456 1.455-5.394-2.792z" fill="#231f20"/></g><g clip-path="url(#clipPath106)"><g transform="translate(424.01 298.46)"><path d="m0 0c0.012-0.732-0.72-1.051-1.523-1.051-1.299 0-2.102 0.638-3.023 0.638-0.661 0-1.24-0.532-1.405-1.24-0.024 0.449 0 0.886 0.449 1.311 0.932 0.885 1.924 0.673 3.022 0.673 1.712 0 2.858 1.369 2.858 2.881 0 1.7-1.287 3.152-3.354 3.152-1.617 0-3.235-1.027-3.235-2.444 0-0.767 0.496-1.429 1.311-1.429 0.744 0 1.263 0.544 1.263 1.205 0 0.85-0.897 1.476-0.508 2.078 0.178 0.272 0.52 0.401 0.91 0.401 0.968 0 1.535-0.802 1.535-1.617 0-1.901-2.338-2.929-3.484-3.944-0.496-0.437-0.909-0.968-0.991-1.724-0.107-0.992 0.248-1.641 0.271-1.7h0.154c-0.26 0.803 0.023 1.558 0.614 1.558 1.11 0 1.582-1.818 3.471-1.818 0.98 0 1.878 0.531 1.878 1.889 0 0.331-0.048 0.709-0.13 1.181zm8.147 1.783v-0.26c0-2.775-1.216-4.605-3.53-4.605-2.315 0-3.531 1.83-3.531 4.605v0.26c0 2.775 1.216 4.605 3.531 4.605 2.314 0 3.53-1.83 3.53-4.605m-4.699 1.027v-2.314c0-1.157 0.059-2.385 0.33-2.94 0.154-0.307 0.496-0.449 0.85-0.449 0.343 0 0.685 0.142 0.827 0.437 0.248 0.508 0.331 1.559 0.331 2.952v2.314c0 1.394-0.083 2.444-0.331 2.952-0.142 0.295-0.484 0.437-0.827 0.437-0.354 0-0.696-0.142-0.85-0.449-0.271-0.555-0.33-1.783-0.33-2.94m9.103-5.124v8.513h-0.885c-0.815-0.956-1.653-1.37-2.751-1.618v-0.259c0.425 0.059 0.909 0.177 1.369 0.377v-7.013c0-0.508-0.259-0.508-1.086-0.508v-0.189h4.44v0.189c-0.827 0-1.087 0-1.087 0.508m6.802 4.605c0.885 0.472 1.487 1.074 1.499 1.924 0.024 1.311-1.086 2.197-3.152 2.185-2.067 0.012-3.354-0.862-3.354-2.397 0-1.169 0.85-1.878 1.913-2.574-1.11-0.39-2.09-0.98-2.09-2.279 0-1.311 1.027-2.232 3.33-2.232 2.479 0 3.767 1.075 3.767 2.81 0 1.228-0.898 1.949-1.913 2.563m-1.547 3.896c0.626 0 1.582-0.366 1.582-1.806 0-0.815-0.212-1.382-0.543-1.783-1.145 0.661-2.279 1.287-2.279 2.444 0 0.614 0.461 1.145 1.24 1.145m-0.472-9.044c-0.721 0-1.724 0.448-1.724 1.912 0 0.791 0.377 1.559 1.098 2.079 0.153-0.095 0.319-0.189 0.472-0.296 0.945-0.614 1.689-0.992 1.689-2.101 0-0.768-0.426-1.594-1.535-1.594" fill="#231f20"/></g><g transform="translate(405.45 297.21)"><path d="m0 0c1.075 0 2.15 0.51 2.15 1.548 0 0.492-0.237 0.839-0.711 1.166-0.31 0.219-1.421 0.638-1.767 0.875-0.182 0.127-0.273 0.346-0.273 0.546 0 0.328 0.218 0.62 0.692 0.62 0.401 0 0.711-0.273 0.692-0.601 0-0.128 0-0.219-0.036-0.365-0.037-0.273-0.037-0.473 0.382-0.473 0.62 0 0.82 0.255 0.802 0.765-0.018 0.601-0.747 1.111-1.785 1.111-1.348 0-1.895-0.783-1.895-1.457 0-0.419 0.219-0.838 0.638-1.112 0.492-0.328 1.33-0.637 1.676-0.856 0.218-0.146 0.291-0.382 0.291-0.583 0-0.346-0.255-0.747-0.801-0.747-0.474 0-0.875 0.237-0.875 0.692 0 0.128 0 0.256 0.037 0.383 0.036 0.273 0.036 0.492-0.401 0.492-0.528 0-0.729-0.219-0.783-0.619-0.456-1.513-1.458-2.551-3.061-2.551-1.33 0-2.113 0.911-2.113 2.04 0 1.221 0.911 2.114 2.514 2.041 0.273-0.018 0.619 0.091 0.619 0.528-0.018 0.182-0.091 0.273-0.401 0.237-1.093-0.128-1.858 0.346-1.858 1.53 0 0.875 0.565 1.822 1.822 1.822 0.492 0 0.911-0.2 1.202-0.492-1.239-0.109-1.566-0.729-1.566-1.111 0-0.674 0.601-1.02 1.238-1.02 0.747 0 1.476 0.564 1.476 1.348 0 0.073 0 0.145-0.018 0.218 1.111 0 3.079 0.019 5.082 0.019l-0.109-2.278c-0.073-2.04 0.109-3.844 1.804-3.844 0.619 0.019 1.093 0.383 1.366 0.838 0.128 0.237 0.2 0.583 0 0.656-0.109 0.037-0.182-0.018-0.219-0.091-0.164-0.346-0.491-0.637-0.783-0.656-0.929-0.018-0.911 1.531-0.802 3.881 0.019 0.492 0.055 0.983 0.073 1.494 1.002-0.019 2.077-0.073 2.387-0.055 0.637 0.036 0.947 0.146 0.965 0.601 0 0.201-0.127 0.219-0.364 0.201-0.401-0.037-1.603-0.055-2.951-0.073v0.073c0.018 0.473 0.018 0.874 0 1.256-0.037 0.474-0.328 0.766-0.856 0.802-0.255 0.037-0.474-0.036-0.456-0.328 0.018-0.091 0.018-0.255 0.018-0.437l-0.054-1.385c-1.476-0.018-2.86-0.018-3.261-0.018-1.294 0-1.64 0-2.168-0.036-0.456 0.564-1.33 1.002-2.332 0.965-1.712-0.073-2.805-1.147-2.805-2.386-0.019-0.784 0.4-1.494 1.02-1.84-1.166-0.292-2.132-1.275-2.132-2.551 0-1.676 1.476-2.805 3.225-2.805 1.822 0 3.151 1.075 3.789 2.569 0.328-0.328 0.911-0.547 1.676-0.547m-2.86 5.739c-0.018-0.583-0.383-0.857-0.692-0.857-0.347 0-0.529 0.255-0.529 0.492 0 0.31 0.219 0.565 1.002 0.601h0.182c0.037-0.073 0.037-0.164 0.037-0.236m10.183-4.209c-0.346 0-0.601-0.255-0.601-0.601 0-0.364 0.255-0.638 0.601-0.638 0.365 0 0.638 0.274 0.638 0.638 0 0.346-0.273 0.601-0.638 0.601m-0.054-2.587c-0.947-0.072-7.141-0.036-8.052-0.036-0.492 0-1.021 0.109-1.075-0.492-0.037-0.182 0.127-0.255 0.328-0.255 0.564 0 0.82 0.018 4.937 0.018 1.548 0 2.915-0.073 3.261-0.054 0.637 0.036 0.947 0.2 0.965 0.655 0 0.201-0.127 0.183-0.364 0.164" fill="#231f20"/></g></g><text transform="matrix(1 0 0 -1 187.05 149.52)" fill="#ffffff" font-family="'Bodoni 72'" font-size="43px" font-weight="bold"><tspan x="0 39.731998 55.255001 80.582001 105.909 136.65401 168.259 203.132 238.005 264.66501 294.12 301.68799 317.211 352.08401 359.65201 388.07501 413.40201 441.30899" y="0">WILLKOMMEN IM CLUB</tspan></text></g></svg>
