<svg xmlns="http://www.w3.org/2000/svg" xml:space="preserve" width="412.733" height="134.213"><path d="M2065.7 741.297h-100.2V559.945c0-38.113 1.27-86.023 5.03-128.379-13.08 35.696-32.07 79.243-43.59 106.567l-93.65 203.164h-104.87V266.102h99.55v182.711c0 39.093-1.29 87.511-5.76 130.109 14.2-35.606 27.81-69.949 44.6-107.609l94.96-205.223h53.88l-.01.012h50.06zm67.2-475.598h101.5v475.188h-101.5zm219.19 251.992 149.03 223.204h-117.59L2238.26 518.07l-1.01-1.55 143.36-249.297.87-1.512h123.23zM2650 355.211v114.375h137.05v87.559H2648.7v96.835h163.07l13.8 86.915h-277.42l.04-475.184h281.71v89.5zM1560 740.895V426.043c0-55.102-19.35-78.613-64.69-78.613-42.94 0-63.38 11.765-63.38 78.613v314.852h-104.74V403.961c0-127.07 105.34-146.043 168.12-146.043 104.11 0 168.77 56.211 168.77 146.687v336.29zm-441.05-86.907v-96.187h125.38v-86.274h-125.38V265.711h-100.49v475.184h265.67l-12.94-86.907h-152.24M718.125 740.926l86.484-237.61-86.484-237.605h73.801l86.472 237.605-86.472 237.61h-73.801" style="fill:#e92729;fill-opacity:1;fill-rule:nonzero;stroke:none" transform="matrix(.13333 0 0 -.13333 0 134.213)"/>
	<path d="m567.344 740.926 86.484-237.61-86.484-237.605h73.801l86.476 237.605-86.476 237.61h-73.801"
		  style="fill:#e92729;fill-opacity:1;fill-rule:nonzero;stroke:none"
		  transform="matrix(.13333 0 0 -.13333 0 134.213)"/>
	<path d="m416.559 740.934 86.48-237.598-86.48-237.609h73.796l86.481 237.609-86.481 237.598h-73.796"
		  style="fill:#e92729;fill-opacity:1;fill-rule:nonzero;stroke:none"
		  transform="matrix(.13333 0 0 -.13333 0 134.213)"/>
	<path d="m265.73 740.926 86.477-237.61-86.477-237.605h73.797l86.477 237.605-86.477 237.61H265.73"
		  style="fill:#e92729;fill-opacity:1;fill-rule:nonzero;stroke:none"
		  transform="matrix(.13333 0 0 -.13333 0 134.213)"/></svg>
