<?xml version="1.0" encoding="UTF-8" standalone="no"?>
<!DOCTYPE svg PUBLIC "-//W3C//DTD SVG 1.1//EN" "http://www.w3.org/Graphics/SVG/1.1/DTD/svg11.dtd">
<svg width="100%" height="100%" viewBox="0 0 733 228" version="1.1" xmlns="http://www.w3.org/2000/svg" xmlns:xlink="http://www.w3.org/1999/xlink" xml:space="preserve" xmlns:serif="http://www.serif.com/" style="fill-rule:evenodd;clip-rule:evenodd;stroke-linejoin:round;stroke-miterlimit:2;">
    <g transform="matrix(1.3333,0,0,-1.3333,-30.051,257.62)">
        <rect x="0" y="0" width="595.28" height="215.83" style="fill:rgb(227,1,15);fill-rule:nonzero;"/>
        <rect x="22.54" y="22.696" width="549.4" height="170.52" style="fill:rgb(227,1,15);fill-rule:nonzero;"/>
        <g>
            <clipPath id="_clip1">
                <rect x="44.87" y="44.069" width="505.16" height="129.32"/>
            </clipPath>
            <g clip-path="url(#_clip1)">
                <g transform="matrix(1,0,0,1,44.871,50.619)">
                    <path d="M0,0C0,-1.755 1.58,-3.335 3.335,-3.335L19.662,-3.335C21.418,-3.335 22.999,-1.755 22.999,0L22.999,116.22C22.999,117.975 21.418,119.555 19.662,119.555L3.335,119.555C1.58,119.555 0,117.975 0,116.22L0,0M34.724,0.702C34.372,-1.755 35.777,-3.335 38.059,-3.335L53.859,-3.335C55.439,-3.335 56.843,-1.932 57.02,-0.702L67.202,65.834L67.728,65.834L98.803,-3.16C99.329,-4.213 100.206,-5.092 101.787,-5.092L104.947,-5.092C106.527,-5.092 107.58,-4.213 107.931,-3.16L138.653,65.834L139.181,65.834L149.538,-0.702C149.89,-1.932 151.294,-3.335 152.875,-3.335L168.85,-3.335C171.132,-3.335 172.536,-1.755 172.01,0.702L151.294,118.682C151.118,120.086 150.065,121.315 148.134,121.315L145.325,121.315C143.745,121.315 142.868,120.612 142.34,119.559L103.718,36.696L103.191,36.696L64.568,119.559C64.042,120.612 62.988,121.315 61.583,121.315L58.775,121.315C56.843,121.315 55.791,120.086 55.615,118.682L34.724,0.702Z" style="fill:white;fill-rule:nonzero;"/>
                </g>
                <g transform="matrix(1,0,0,1,385.96,58.078)">
                    <path d="M0,0C3.575,-3.413 16.801,-14.01 39.32,-14.01C64.52,-14.01 80.427,3.053 80.427,21.553C80.427,44.724 60.409,55.14 43.073,62.145C28.597,68.073 21.983,73.82 21.983,82.262C21.983,88.01 27.524,94.834 37.711,94.834C47.541,94.834 61.125,85.854 62.554,84.956C64.698,83.519 67.379,84.956 68.81,87.112L75.602,97.349C76.852,99.145 76.315,102.199 74.529,103.276C70.954,105.971 57.014,115.31 38.783,115.31C10.365,115.31 -1.431,96.811 -1.431,80.825C-1.431,59.63 15.37,48.854 32.17,42.029C47.183,35.923 54.869,29.636 54.869,20.476C54.869,12.752 47.898,6.646 38.604,6.646C26.988,6.646 12.51,17.242 11.617,17.782C10.009,19.04 6.97,19.04 5.54,16.525L-0.895,5.388C-2.503,2.515 -1.608,1.617 0,0" style="fill:white;fill-rule:nonzero;"/>
                </g>
                <g transform="matrix(1,0,0,1,496.83,50.619)">
                    <path d="M0,0C0,-1.755 1.58,-3.335 3.335,-3.335L19.662,-3.335C21.418,-3.335 22.998,-1.755 22.998,0L22.998,98.488L49.858,98.488C51.789,98.488 53.194,100.068 53.194,101.824L53.194,116.22C53.194,117.975 51.789,119.555 49.858,119.555L-26.86,119.555C-28.791,119.555 -30.196,117.975 -30.196,116.22L-30.196,101.824C-30.196,100.068 -28.791,98.488 -26.86,98.488L0,98.488L0,0Z" style="fill:white;fill-rule:nonzero;"/>
                </g>
                <g transform="matrix(1,0,0,1,300.47,50.619)">
                    <path d="M0,0C0,-1.755 1.405,-3.335 3.336,-3.335L74.788,-3.335C76.719,-3.335 78.123,-1.755 78.123,0L78.123,14.396C78.123,16.151 76.719,17.731 74.788,17.731L22.823,17.731L22.823,48.454L66.186,48.454C67.941,48.454 69.521,49.859 69.521,51.79L69.521,66.361C69.521,68.116 67.941,69.696 66.186,69.696L22.823,69.696L22.823,98.488L74.788,98.488C76.719,98.488 78.123,100.068 78.123,101.824L78.123,116.22C78.123,117.975 76.719,119.555 74.788,119.555L3.336,119.555C1.405,119.555 -0,117.975 -0,116.22L0,0Z" style="fill:white;fill-rule:nonzero;"/>
                </g>
                <g transform="matrix(1,0,0,1,241.1,50.619)">
                    <path d="M0,0C0,-1.755 1.58,-3.335 3.335,-3.335L19.662,-3.335C21.418,-3.335 22.998,-1.755 22.998,0L22.998,98.488L49.859,98.488C51.79,98.488 53.194,100.068 53.194,101.824L53.194,116.22C53.194,117.975 51.79,119.555 49.859,119.555L-26.861,119.555C-28.792,119.555 -30.196,117.975 -30.196,116.22L-30.196,101.824C-30.196,100.068 -28.792,98.488 -26.861,98.488L0,98.488L0,0Z" style="fill:white;fill-rule:nonzero;"/>
                </g>
            </g>
        </g>
    </g>
</svg>
