<svg enable-background="new 0 0 1200 294" viewBox="0 0 1200 294" xmlns="http://www.w3.org/2000/svg"><g fill="#FFF"><path shape-rendering="geometricPrecision" d="m421.747 25.849-131.882 243.048h-93.739l-7.053-112.58-.475-22.123-8.01 17.896-53.701 116.807h-91.85l-29.202-265.897h89.506l9.411 128.837.481 32.021 13.169-31.558 48.048-106.451h83.378l5.183 104.106.957 40.977 18.346-40.038 52.294-105.044h95.139z"/><path d="m833.816 91.318c0 7.541-.95 15.538-2.814 24.036l-32.991 153.543h-95.131l30.139-141.306c.938-4.227 1.414-8.004 1.414-11.775 0-15.545-8.968-23.079-22.149-23.079-19.772 0-35.778 15.062-40.969 36.748l-29.677 139.411h-95.146l30.14-141.306c.957-4.227 1.419-8.004 1.419-11.775 0-15.545-8.954-23.079-22.135-23.079-19.316 0-35.799 15.544-40.52 37.217l-29.677 138.942h-95.145l51.824-243.048h87.142l-3.308 29.676c21.204-25.437 44.759-38.156 75.842-38.156 30.134 0 55.583 14.139 66.889 40.99 26.852-28.727 51.337-40.99 84.778-40.99 48.035.002 80.075 28.267 80.075 73.951z"/><path d="m1122.851 93.676c0 8.009-.938 17.433-2.813 26.856l-34.096 171.22h-95.146l31.27-159.452c.938-4.708 1.889-8.486 1.889-13.194 0-16.958-10.367-22.604-24.976-22.604-21.21 0-40.506 17.434-45.684 43.347l-27.325 129.048h-95.146l51.324-243.048h87.168l-3.316 30.614c23.087-25.424 46.636-37.68 80.077-37.68 49.46 0 76.774 29.201 76.774 74.893z"/><path d="m1194.165 238.398c0 16.277-13.181 29.446-29.445 29.446s-29.458-13.169-29.458-29.446c0-16.265 13.194-29.458 29.458-29.458 16.264-.001 29.445 13.193 29.445 29.458z"/></g></svg>